<?xml version="1.0" encoding="utf-8"?>
<!-- Generator: Adobe Illustrator 25.2.0, SVG Export Plug-In . SVG Version: 6.00 Build 0)  -->
<svg version="1.1" id="Layer_1" xmlns="http://www.w3.org/2000/svg" xmlns:xlink="http://www.w3.org/1999/xlink" x="0px" y="0px"
	 viewBox="0 0 246.5 161.6" style="enable-background:new 0 0 246.5 161.6;" xml:space="preserve">
<style type="text/css">
	.st0{clip-path:url(#SVGID_2_);fill:url(#SVGID_3_);}
	.st1{clip-path:url(#SVGID_5_);fill:url(#SVGID_6_);}
	.st2{clip-path:url(#SVGID_8_);fill:url(#SVGID_9_);}
	.st3{clip-path:url(#SVGID_11_);fill:url(#SVGID_12_);}
	.st4{clip-path:url(#SVGID_14_);fill:url(#SVGID_15_);}
	.st5{clip-path:url(#SVGID_17_);fill:url(#SVGID_18_);}
	.st6{clip-path:url(#SVGID_20_);fill:url(#SVGID_21_);}
	.st7{clip-path:url(#SVGID_23_);fill:url(#SVGID_24_);}
	.st8{clip-path:url(#SVGID_26_);fill:url(#SVGID_27_);}
	.st9{clip-path:url(#SVGID_29_);fill:url(#SVGID_30_);}
	.st10{clip-path:url(#SVGID_32_);}
</style>
<g>
	<defs>
		<polygon id="SVGID_1_" points="160.7,92.3 134.8,92.3 132.9,89.1 132.9,89.1 131.1,85.9 127.4,79.5 127.4,79.5 125.5,76.3 
			123.7,73.1 123.7,73.1 121.8,69.9 121.8,69.9 120,66.7 118.1,63.5 120,60.3 121.8,63.5 121.8,63.5 123.7,66.7 125.5,69.9 
			125.5,69.9 127.4,73.1 131.1,79.5 131.1,79.5 132.9,82.7 134.8,85.9 134.8,85.9 136.6,89.1 144,89.1 142.2,85.9 140.3,82.7 
			138.5,79.5 136.6,76.3 134.8,73.1 138.5,73.1 140.3,76.3 142.2,79.5 144,82.7 147.7,89.1 155.1,89.1 153.3,85.9 153.3,85.9 
			151.4,82.7 151.4,82.7 149.6,79.5 149.6,79.5 147.7,76.3 145.9,73.1 144,69.9 142.2,66.7 140.3,63.5 140.3,63.5 138.5,60.3 
			138.5,60.3 136.6,57.1 134.8,53.9 132.9,50.6 127.4,41 127.4,41 125.5,37.8 123.7,41 123.7,41 118.1,50.6 118.1,50.7 116.2,53.9 
			114.4,57.1 112.5,60.3 112.5,60.3 112.5,60.3 110.7,63.5 110.7,63.5 108.8,66.7 107,69.9 107,69.9 101.4,79.5 101.4,79.5 
			99.6,82.7 99.6,82.7 97.7,85.9 97.7,85.9 95.9,89.1 103.3,89.1 107,82.7 108.8,79.5 110.7,76.3 112.5,73.1 112.5,73.1 114.4,69.9 
			116.2,73.1 116.2,73.1 112.5,79.5 110.7,82.7 110.7,82.7 110.7,82.7 108.8,85.9 107,89.1 114.4,89.1 116.2,85.9 118.1,82.7 
			118.1,82.7 120,79.5 121.8,82.7 121.8,82.7 121.8,82.7 120,85.9 118.1,89.1 116.2,92.3 90.3,92.3 90.3,92.3 92.2,89.1 94,85.9 
			95.9,82.7 95.9,82.7 95.9,82.7 97.7,79.5 97.7,79.5 99.6,76.3 101.4,73.1 101.4,73.1 103.3,69.9 105.1,66.7 107,63.5 107,63.5 
			107,63.5 108.8,60.3 110.7,57.1 112.5,53.9 114.4,50.6 116.2,47.4 118.1,44.2 120,41 121.8,37.8 121.8,37.8 123.7,34.6 
			123.7,34.6 123.7,34.6 125.5,31.4 127.4,34.6 127.4,34.6 129.2,37.8 131.1,41 132.9,44.2 134.8,47.4 134.8,47.4 136.6,50.6 
			136.6,50.7 142.2,60.3 142.2,60.3 144,63.5 145.9,66.7 147.7,69.9 147.7,69.9 149.6,73.1 149.6,73.1 151.4,76.3 153.3,79.5 
			153.3,79.5 157,85.9 158.8,89.1 		"/>
	</defs>
	<clipPath id="SVGID_2_">
		<use xlink:href="#SVGID_1_"  style="overflow:visible;"/>
	</clipPath>
	
		<linearGradient id="SVGID_3_" gradientUnits="userSpaceOnUse" x1="0" y1="161.6633" x2="1" y2="161.6633" gradientTransform="matrix(106.1645 54.5881 54.5881 -106.1645 -8785.9717 17180.2656)">
		<stop  offset="0" style="stop-color:#000000"/>
		<stop  offset="0.1024" style="stop-color:#000000"/>
		<stop  offset="0.5255" style="stop-color:#FFFFFF"/>
		<stop  offset="0.9013" style="stop-color:#000000"/>
		<stop  offset="1" style="stop-color:#000000"/>
	</linearGradient>
	<polygon class="st0" points="105,2.8 185.4,44.2 146,120.9 65.6,79.6 	"/>
</g>
<g>
	<defs>
		<polygon id="SVGID_4_" points="131.1,47.4 129.2,50.6 127.4,53.9 127.4,53.9 125.5,57.1 123.7,60.3 123.7,60.3 121.8,63.5 
			120,60.3 121.8,57.1 123.7,53.9 123.7,53.9 125.5,50.6 125.5,50.6 127.4,47.4 129.2,44.2 		"/>
	</defs>
	<clipPath id="SVGID_5_">
		<use xlink:href="#SVGID_4_"  style="overflow:visible;"/>
	</clipPath>
	
		<linearGradient id="SVGID_6_" gradientUnits="userSpaceOnUse" x1="0" y1="161.596" x2="1" y2="161.596" gradientTransform="matrix(106.1645 54.5881 54.5881 -106.1645 -8779.0342 17166.7734)">
		<stop  offset="0" style="stop-color:#000000"/>
		<stop  offset="0.1024" style="stop-color:#000000"/>
		<stop  offset="0.5255" style="stop-color:#FFFFFF"/>
		<stop  offset="0.9013" style="stop-color:#000000"/>
		<stop  offset="1" style="stop-color:#000000"/>
	</linearGradient>
	<polygon class="st1" points="122.3,39.7 138.9,48.3 128.7,68 112.1,59.5 	"/>
</g>
<g>
	<defs>
		<polygon id="SVGID_7_" points="136.6,57.1 134.8,60.3 132.9,63.5 129.2,69.9 127.4,73.1 125.5,69.9 125.5,69.9 125.5,69.9 
			127.4,66.7 129.2,63.5 131.1,60.3 132.9,57.1 134.8,53.9 		"/>
	</defs>
	<clipPath id="SVGID_8_">
		<use xlink:href="#SVGID_7_"  style="overflow:visible;"/>
	</clipPath>
	
		<linearGradient id="SVGID_9_" gradientUnits="userSpaceOnUse" x1="0" y1="161.596" x2="1" y2="161.596" gradientTransform="matrix(106.1645 54.5881 54.5881 -106.1645 -8781.7852 17172.123)">
		<stop  offset="0" style="stop-color:#000000"/>
		<stop  offset="0.1024" style="stop-color:#000000"/>
		<stop  offset="0.5255" style="stop-color:#FFFFFF"/>
		<stop  offset="0.9013" style="stop-color:#000000"/>
		<stop  offset="1" style="stop-color:#000000"/>
	</linearGradient>
	<polygon class="st2" points="127.8,49.3 144.4,57.9 134.3,77.6 117.7,69.1 	"/>
</g>
<g>
	<defs>
		<polygon id="SVGID_10_" points="142.2,66.7 140.3,69.9 140.3,69.9 138.5,73.1 134.8,73.1 136.6,69.9 138.5,66.7 140.3,63.5 
			140.3,63.5 		"/>
	</defs>
	<clipPath id="SVGID_11_">
		<use xlink:href="#SVGID_10_"  style="overflow:visible;"/>
	</clipPath>
	
		<linearGradient id="SVGID_12_" gradientUnits="userSpaceOnUse" x1="0" y1="161.5995" x2="1" y2="161.5995" gradientTransform="matrix(106.1645 54.5881 54.5881 -106.1645 -8782.3857 17173.291)">
		<stop  offset="0" style="stop-color:#000000"/>
		<stop  offset="0.1024" style="stop-color:#000000"/>
		<stop  offset="0.5255" style="stop-color:#FFFFFF"/>
		<stop  offset="0.9013" style="stop-color:#000000"/>
		<stop  offset="1" style="stop-color:#000000"/>
	</linearGradient>
	<polygon class="st3" points="136.3,60.5 146.1,65.5 140.6,76.1 130.9,71.1 	"/>
</g>
<g>
	<defs>
		<polygon id="SVGID_13_" points="118.1,37.8 116.2,41 114.4,37.8 95.9,37.8 97.7,41 99.6,44.2 101.4,47.4 101.4,47.4 103.3,50.6 
			105.1,53.9 105.1,53.9 105.1,53.9 107,57.1 105.1,60.3 101.4,53.9 101.4,53.9 99.6,50.6 97.7,47.4 97.7,47.4 95.9,44.2 94,41 
			94,41 92.2,37.8 90.3,34.6 116.2,34.6 		"/>
	</defs>
	<clipPath id="SVGID_14_">
		<use xlink:href="#SVGID_13_"  style="overflow:visible;"/>
	</clipPath>
	
		<linearGradient id="SVGID_15_" gradientUnits="userSpaceOnUse" x1="0" y1="161.5712" x2="1" y2="161.5712" gradientTransform="matrix(106.1645 54.5881 54.5881 -106.1645 -8779.5234 17167.7246)">
		<stop  offset="0" style="stop-color:#000000"/>
		<stop  offset="0.1024" style="stop-color:#000000"/>
		<stop  offset="0.5255" style="stop-color:#FFFFFF"/>
		<stop  offset="0.9013" style="stop-color:#000000"/>
		<stop  offset="1" style="stop-color:#000000"/>
	</linearGradient>
	<polygon class="st4" points="96.1,23.3 128.5,40 112.3,71.6 79.9,54.9 	"/>
</g>
<g>
	<defs>
		<polygon id="SVGID_16_" points="112.5,47.4 110.7,50.6 110.7,50.6 108.8,47.4 107,44.2 107,44.2 105.1,41 108.8,41 110.7,44.2 		
			"/>
	</defs>
	<clipPath id="SVGID_17_">
		<use xlink:href="#SVGID_16_"  style="overflow:visible;"/>
	</clipPath>
	
		<linearGradient id="SVGID_18_" gradientUnits="userSpaceOnUse" x1="0" y1="161.5925" x2="1" y2="161.5925" gradientTransform="matrix(106.1645 54.5881 54.5881 -106.1645 -8779.0645 17166.832)">
		<stop  offset="0" style="stop-color:#000000"/>
		<stop  offset="0.1024" style="stop-color:#000000"/>
		<stop  offset="0.5255" style="stop-color:#FFFFFF"/>
		<stop  offset="0.9013" style="stop-color:#000000"/>
		<stop  offset="1" style="stop-color:#000000"/>
	</linearGradient>
	<polygon class="st5" points="106.7,38 116.5,43 111,53.7 101.2,48.6 	"/>
</g>
<g>
	<defs>
		<path id="SVGID_19_" d="M105.8,119.9h1.6V113h8.6v7.1c0.4,0,0.8-0.2,1.1-0.5c0.3-0.3,0.5-0.7,0.5-1.1v-13.7H116v6.7h-8.6v-5.2
			c0-0.4-0.2-0.8-0.5-1.1c-0.3-0.3-0.7-0.5-1.1-0.5V119.9z"/>
	</defs>
	<clipPath id="SVGID_20_">
		<use xlink:href="#SVGID_19_"  style="overflow:visible;"/>
	</clipPath>
	
		<linearGradient id="SVGID_21_" gradientUnits="userSpaceOnUse" x1="0" y1="161.596" x2="1" y2="161.596" gradientTransform="matrix(106.1645 54.5881 54.5881 -106.1645 -8805.709 17218.6523)">
		<stop  offset="0" style="stop-color:#000000"/>
		<stop  offset="0.1024" style="stop-color:#000000"/>
		<stop  offset="0.5255" style="stop-color:#FFFFFF"/>
		<stop  offset="0.9013" style="stop-color:#000000"/>
		<stop  offset="1" style="stop-color:#000000"/>
	</linearGradient>
	<polygon class="st6" points="108.3,99.9 123.8,107.9 115.1,124.8 99.6,116.8 	"/>
</g>
<g>
	<defs>
		<path id="SVGID_22_" d="M89.1,104.9l-7.5,15h1.8l5.8-11.7l3.2,6.4h-3.3c-0.9,0-1.7,0.6-1.7,1.5h5.8l1.9,3.8h1.7L89.1,104.9
			L89.1,104.9z"/>
	</defs>
	<clipPath id="SVGID_23_">
		<use xlink:href="#SVGID_22_"  style="overflow:visible;"/>
	</clipPath>
	
		<linearGradient id="SVGID_24_" gradientUnits="userSpaceOnUse" x1="0" y1="161.6102" x2="1" y2="161.6102" gradientTransform="matrix(106.1645 54.5881 54.5881 -106.1645 -8811.248 17229.4238)">
		<stop  offset="0" style="stop-color:#000000"/>
		<stop  offset="0.1024" style="stop-color:#000000"/>
		<stop  offset="0.5255" style="stop-color:#FFFFFF"/>
		<stop  offset="0.9013" style="stop-color:#000000"/>
		<stop  offset="1" style="stop-color:#000000"/>
	</linearGradient>
	<polygon class="st7" points="84.7,98.8 102.7,108.1 93.4,126 75.5,116.8 	"/>
</g>
<g>
	<defs>
		<path id="SVGID_25_" d="M163.2,104.8l-4.8,6.4l-3.7-4.9c-0.7-0.9-1.7-1.4-2.9-1.4l5.7,7.5l-5.7,7.5h1.8l4.8-6.4l3.7,4.9
			c0.7,0.9,1.7,1.4,2.9,1.4l-5.7-7.5l5.7-7.5H163.2z"/>
	</defs>
	<clipPath id="SVGID_26_">
		<use xlink:href="#SVGID_25_"  style="overflow:visible;"/>
	</clipPath>
	
		<linearGradient id="SVGID_27_" gradientUnits="userSpaceOnUse" x1="0" y1="161.596" x2="1" y2="161.596" gradientTransform="matrix(106.1645 54.5881 54.5881 -106.1645 -8795.9209 17199.6152)">
		<stop  offset="0" style="stop-color:#000000"/>
		<stop  offset="0.1024" style="stop-color:#000000"/>
		<stop  offset="0.5255" style="stop-color:#FFFFFF"/>
		<stop  offset="0.9013" style="stop-color:#000000"/>
		<stop  offset="1" style="stop-color:#000000"/>
	</linearGradient>
	<polygon class="st8" points="154.6,99.4 171.1,107.9 162.2,125.2 145.7,116.7 	"/>
</g>
<g>
	<defs>
		<path id="SVGID_28_" d="M129,112.4c0-3.5,2.8-6.4,6.4-6.4c3.5,0,6.4,2.8,6.4,6.4c0,3.5-2.8,6.4-6.4,6.4
			C131.9,118.7,129,115.9,129,112.4 M127.6,112.4c0,4.3,3.5,7.7,7.7,7.7c4.3,0,7.7-3.5,7.7-7.7c0-4.3-3.5-7.7-7.7-7.7
			C131.1,104.7,127.6,108.1,127.6,112.4"/>
	</defs>
	<clipPath id="SVGID_29_">
		<use xlink:href="#SVGID_28_"  style="overflow:visible;"/>
	</clipPath>
	
		<linearGradient id="SVGID_30_" gradientUnits="userSpaceOnUse" x1="0" y1="161.596" x2="1" y2="161.596" gradientTransform="matrix(106.1645 54.5881 54.5881 -106.1645 -8800.7725 17209.0508)">
		<stop  offset="0" style="stop-color:#000000"/>
		<stop  offset="0.1024" style="stop-color:#000000"/>
		<stop  offset="0.5255" style="stop-color:#FFFFFF"/>
		<stop  offset="0.9013" style="stop-color:#000000"/>
		<stop  offset="1" style="stop-color:#000000"/>
	</linearGradient>
	<polygon class="st9" points="130.9,98.4 149.4,107.9 139.9,126.4 121.3,116.9 	"/>
</g>
<g>
	<defs>
		<rect id="SVGID_31_" width="246.5" height="161.6"/>
	</defs>
	<clipPath id="SVGID_32_">
		<use xlink:href="#SVGID_31_"  style="overflow:visible;"/>
	</clipPath>
	<path class="st10" d="M106.7,127.4c-0.2,0-0.2-0.4,0-0.4h1.9c0.1,0,0.2,0.1,0.2,0.2v1.9c0,0.1,0,0.1-0.1,0.1
		c-0.6,0.6-1.3,0.9-2.2,0.9c-0.9,0-1.6-0.3-2.2-0.9c-0.6-0.6-0.9-1.3-0.9-2.2c0-0.9,0.3-1.6,0.9-2.2c0.6-0.6,1.3-0.9,2.2-0.9
		c0.8,0,1.5,0.3,2.1,0.9c0,0,0.1,0.1,0.1,0.2c0,0.1-0.1,0.2-0.2,0.2c-0.1,0-0.1,0-0.2-0.1c-0.5-0.5-1.2-0.8-1.9-0.8
		c-0.7,0-1.4,0.3-1.9,0.8c-0.5,0.5-0.8,1.2-0.8,1.9s0.3,1.4,0.8,1.9c0.5,0.5,1.2,0.8,1.9,0.8c0.7,0,1.3-0.2,1.8-0.7v-1.6H106.7z"/>
	<path class="st10" d="M112.9,124.3c0-0.1,0.1-0.2,0.2-0.2h2.9c0.5,0,0.9,0.2,1.3,0.6c0.4,0.4,0.5,0.8,0.5,1.3c0,0.5-0.2,1-0.5,1.3
		c-0.4,0.4-0.8,0.5-1.3,0.5h0l2,2c0.2,0.2-0.1,0.5-0.3,0.3l-2.3-2.3h-2.1v2.2c0,0.2-0.4,0.2-0.4,0V124.3z M113.3,124.5v3h2.7
		c0.4,0,0.8-0.2,1-0.4c0.3-0.3,0.4-0.6,0.4-1c0-0.4-0.1-0.8-0.4-1.1c-0.3-0.3-0.6-0.4-1-0.4H113.3z"/>
	<path class="st10" d="M121.8,127.1c0-0.9,0.3-1.6,0.9-2.2c0.6-0.6,1.3-0.9,2.2-0.9c0.8,0,1.6,0.3,2.2,0.9c0.6,0.6,0.9,1.3,0.9,2.2
		c0,0.8-0.3,1.6-0.9,2.2c-0.6,0.6-1.3,0.9-2.2,0.9c-0.9,0-1.6-0.3-2.2-0.9C122.1,128.7,121.8,128,121.8,127.1 M122.2,127.1
		c0,0.7,0.3,1.4,0.8,1.9c0.5,0.5,1.2,0.8,1.9,0.8c0.7,0,1.4-0.3,1.9-0.8c0.5-0.5,0.8-1.2,0.8-1.9c0-0.7-0.3-1.4-0.8-1.9
		c-0.5-0.5-1.2-0.8-1.9-0.8c-0.7,0-1.4,0.3-1.9,0.8C122.5,125.8,122.2,126.4,122.2,127.1"/>
	<path class="st10" d="M137.2,124.3c0-0.2,0.4-0.2,0.4,0v3.1c0,0.8-0.3,1.4-0.8,2c-0.5,0.5-1.2,0.8-2,0.8c-0.8,0-1.4-0.3-2-0.8
		c-0.5-0.6-0.8-1.2-0.8-2v-3.1c0-0.2,0.4-0.2,0.4,0v3.1c0,0.7,0.2,1.3,0.7,1.7c0.5,0.5,1.1,0.7,1.7,0.7c0.7,0,1.3-0.2,1.7-0.7
		c0.5-0.5,0.7-1.1,0.7-1.7V124.3z"/>
	<path class="st10" d="M141.9,124.3c0-0.1,0.1-0.2,0.2-0.2h2.9c0.5,0,0.9,0.2,1.3,0.6c0.4,0.4,0.5,0.8,0.5,1.3c0,0.5-0.2,1-0.5,1.3
		c-0.4,0.4-0.8,0.5-1.3,0.5h-2.7v2.2c0,0.2-0.4,0.2-0.4,0V124.3z M142.3,124.5v3h2.7c0.4,0,0.8-0.1,1-0.4c0.3-0.3,0.4-0.6,0.4-1.1
		c0-0.4-0.1-0.8-0.4-1c-0.3-0.3-0.6-0.4-1-0.4H142.3z"/>
</g>
</svg>
