<?xml version="1.0" encoding="utf-8"?>
<!-- Generator: Adobe Illustrator 25.2.0, SVG Export Plug-In . SVG Version: 6.00 Build 0)  -->
<svg version="1.1" id="Layer_1" xmlns="http://www.w3.org/2000/svg" xmlns:xlink="http://www.w3.org/1999/xlink" x="0px" y="0px"
	 viewBox="0 0 246.5 161.6" style="enable-background:new 0 0 246.5 161.6;" xml:space="preserve">
<style type="text/css">
	.st0{clip-path:url(#SVGID_2_);fill:#FFFFFF;stroke:#FFFFFF;stroke-miterlimit:10;}
	.st1{clip-path:url(#SVGID_4_);fill:#FFFFFF;stroke:#FFFFFF;stroke-miterlimit:10;}
	.st2{clip-path:url(#SVGID_6_);fill:#FFFFFF;stroke:#FFFFFF;stroke-miterlimit:10;}
	.st3{clip-path:url(#SVGID_8_);fill:#FFFFFF;stroke:#FFFFFF;stroke-miterlimit:10;}
	.st4{clip-path:url(#SVGID_10_);fill:#FFFFFF;stroke:#FFFFFF;stroke-miterlimit:10;}
	.st5{clip-path:url(#SVGID_12_);fill:#FFFFFF;stroke:#FFFFFF;stroke-miterlimit:10;}
	.st6{clip-path:url(#SVGID_14_);fill:#FFFFFF;stroke:#FFFFFF;stroke-miterlimit:10;}
	.st7{clip-path:url(#SVGID_16_);fill:#FFFFFF;stroke:#FFFFFF;stroke-miterlimit:10;}
	.st8{clip-path:url(#SVGID_18_);fill:#FFFFFF;stroke:#FFFFFF;stroke-miterlimit:10;}
	.st9{clip-path:url(#SVGID_20_);fill:#FFFFFF;stroke:#FFFFFF;stroke-miterlimit:10;}
	.st10{fill:#FFFFFF;stroke:#FFFFFF;stroke-miterlimit:10;}
</style>
<g>
	<defs>
		<polygon id="SVGID_1_" points="160.7,92.3 134.8,92.3 132.9,89.1 132.9,89.1 131.1,85.9 127.4,79.5 127.4,79.5 125.5,76.3 
			123.7,73.1 123.7,73.1 121.8,69.9 121.8,69.9 120,66.7 118.1,63.5 120,60.3 121.8,63.5 121.8,63.5 123.7,66.7 125.5,69.9 
			125.5,69.9 127.4,73.1 131.1,79.5 131.1,79.5 132.9,82.7 134.8,85.9 134.8,85.9 136.6,89.1 144,89.1 142.2,85.9 140.3,82.7 
			138.5,79.5 136.6,76.3 134.8,73.1 138.5,73.1 140.3,76.3 142.2,79.5 144,82.7 147.7,89.1 155.1,89.1 153.3,85.9 153.3,85.9 
			151.4,82.7 151.4,82.7 149.6,79.5 149.6,79.5 147.7,76.3 145.9,73.1 144,69.9 142.2,66.7 140.3,63.5 140.3,63.5 138.5,60.3 
			138.5,60.3 136.6,57.1 134.8,53.9 132.9,50.6 127.4,41 127.4,41 125.5,37.8 123.7,41 123.7,41 118.1,50.6 118.1,50.7 116.2,53.9 
			114.4,57.1 112.5,60.3 112.5,60.3 112.5,60.3 110.7,63.5 110.7,63.5 108.8,66.7 107,69.9 107,69.9 101.4,79.5 101.4,79.5 
			99.6,82.7 99.6,82.7 97.7,85.9 97.7,85.9 95.9,89.1 103.3,89.1 107,82.7 108.8,79.5 110.7,76.3 112.5,73.1 112.5,73.1 114.4,69.9 
			116.2,73.1 116.2,73.1 112.5,79.5 110.7,82.7 110.7,82.7 110.7,82.7 108.8,85.9 107,89.1 114.4,89.1 116.2,85.9 118.1,82.7 
			118.1,82.7 120,79.5 121.8,82.7 121.8,82.7 121.8,82.7 120,85.9 118.1,89.1 116.2,92.3 90.3,92.3 90.3,92.3 92.2,89.1 94,85.9 
			95.9,82.7 95.9,82.7 95.9,82.7 97.7,79.5 97.7,79.5 99.6,76.3 101.4,73.1 101.4,73.1 103.3,69.9 105.1,66.7 107,63.5 107,63.5 
			107,63.5 108.8,60.3 110.7,57.1 112.5,53.9 114.4,50.6 116.2,47.4 118.1,44.2 120,41 121.8,37.8 121.8,37.8 123.7,34.6 
			123.7,34.6 123.7,34.6 125.5,31.4 127.4,34.6 127.4,34.6 129.2,37.8 131.1,41 132.9,44.2 134.8,47.4 134.8,47.4 136.6,50.6 
			136.6,50.7 142.2,60.3 142.2,60.3 144,63.5 145.9,66.7 147.7,69.9 147.7,69.9 149.6,73.1 149.6,73.1 151.4,76.3 153.3,79.5 
			153.3,79.5 157,85.9 158.8,89.1 		"/>
	</defs>
	<use xlink:href="#SVGID_1_"  style="overflow:visible;fill:#FFFFFF;"/>
	<clipPath id="SVGID_2_">
		<use xlink:href="#SVGID_1_"  style="overflow:visible;"/>
	</clipPath>
	
		<rect x="82.3" y="16.7" transform="matrix(0.4573 -0.8893 0.8893 0.4573 13.088 145.1935)" class="st0" width="86.3" height="90.4"/>
	<use xlink:href="#SVGID_1_"  style="overflow:visible;fill:none;stroke:#FFFFFF;stroke-miterlimit:10;"/>
</g>
<g>
	<defs>
		<polygon id="SVGID_3_" points="131.1,47.4 129.2,50.6 127.4,53.9 127.4,53.9 125.5,57.1 123.7,60.3 123.7,60.3 121.8,63.5 
			120,60.3 121.8,57.1 123.7,53.9 123.7,53.9 125.5,50.6 125.5,50.6 127.4,47.4 129.2,44.2 		"/>
	</defs>
	<use xlink:href="#SVGID_3_"  style="overflow:visible;fill:#FFFFFF;"/>
	<clipPath id="SVGID_4_">
		<use xlink:href="#SVGID_3_"  style="overflow:visible;"/>
	</clipPath>
	
		<rect x="114.4" y="44.5" transform="matrix(0.4573 -0.8893 0.8893 0.4573 20.2184 140.8445)" class="st1" width="22.2" height="18.7"/>
	<use xlink:href="#SVGID_3_"  style="overflow:visible;fill:none;stroke:#FFFFFF;stroke-miterlimit:10;"/>
</g>
<g>
	<defs>
		<polygon id="SVGID_5_" points="136.6,57.1 134.8,60.3 132.9,63.5 129.2,69.9 127.4,73.1 125.5,69.9 125.5,69.9 125.5,69.9 
			127.4,66.7 129.2,63.5 131.1,60.3 132.9,57.1 134.8,53.9 		"/>
	</defs>
	<use xlink:href="#SVGID_5_"  style="overflow:visible;fill:#FFFFFF;"/>
	<clipPath id="SVGID_6_">
		<use xlink:href="#SVGID_5_"  style="overflow:visible;"/>
	</clipPath>
	
		<rect x="120" y="54.1" transform="matrix(0.4573 -0.8893 0.8893 0.4573 14.6759 151.0045)" class="st2" width="22.2" height="18.7"/>
	<use xlink:href="#SVGID_5_"  style="overflow:visible;fill:none;stroke:#FFFFFF;stroke-miterlimit:10;"/>
</g>
<g>
	<defs>
		<polygon id="SVGID_7_" points="142.2,66.7 140.3,69.9 140.3,69.9 138.5,73.1 134.8,73.1 136.6,69.9 138.5,66.7 140.3,63.5 
			140.3,63.5 		"/>
	</defs>
	<use xlink:href="#SVGID_7_"  style="overflow:visible;fill:#FFFFFF;"/>
	<clipPath id="SVGID_8_">
		<use xlink:href="#SVGID_7_"  style="overflow:visible;"/>
	</clipPath>
	
		<rect x="132.5" y="62.8" transform="matrix(0.4573 -0.8893 0.8893 0.4573 14.4176 160.2002)" class="st3" width="11.9" height="11"/>
	<use xlink:href="#SVGID_7_"  style="overflow:visible;fill:none;stroke:#FFFFFF;stroke-miterlimit:10;"/>
</g>
<g>
	<defs>
		<polygon id="SVGID_9_" points="118.1,37.8 116.2,41 114.4,37.8 95.9,37.8 97.7,41 99.6,44.2 101.4,47.4 101.4,47.4 103.3,50.6 
			105.1,53.9 105.1,53.9 105.1,53.9 107,57.1 105.1,60.3 101.4,53.9 101.4,53.9 99.6,50.6 97.7,47.4 97.7,47.4 95.9,44.2 94,41 
			94,41 92.2,37.8 90.3,34.6 116.2,34.6 		"/>
	</defs>
	<use xlink:href="#SVGID_9_"  style="overflow:visible;fill:#FFFFFF;"/>
	<clipPath id="SVGID_10_">
		<use xlink:href="#SVGID_9_"  style="overflow:visible;"/>
	</clipPath>
	
		<rect x="86.5" y="29.2" transform="matrix(0.4573 -0.8893 0.8893 0.4573 14.367 118.4322)" class="st4" width="35.5" height="36.4"/>
	<use xlink:href="#SVGID_9_"  style="overflow:visible;fill:none;stroke:#FFFFFF;stroke-miterlimit:10;"/>
</g>
<g>
	<defs>
		<polygon id="SVGID_11_" points="112.5,47.4 110.7,50.6 110.7,50.6 108.8,47.4 107,44.2 107,44.2 105.1,41 108.8,41 110.7,44.2 		
			"/>
	</defs>
	<use xlink:href="#SVGID_11_"  style="overflow:visible;fill:#FFFFFF;"/>
	<clipPath id="SVGID_12_">
		<use xlink:href="#SVGID_11_"  style="overflow:visible;"/>
	</clipPath>
	
		<rect x="102.9" y="40.3" transform="matrix(0.4573 -0.8893 0.8893 0.4573 18.3053 121.6768)" class="st5" width="11.9" height="11"/>
	<use xlink:href="#SVGID_11_"  style="overflow:visible;fill:none;stroke:#FFFFFF;stroke-miterlimit:10;"/>
</g>
<g>
	<defs>
		<path id="SVGID_13_" d="M105.8,119.9h1.6V113h8.6v7.1c0.4,0,0.8-0.2,1.1-0.5c0.3-0.3,0.5-0.7,0.5-1.1v-13.7H116v6.7h-8.6v-5.2
			c0-0.4-0.2-0.8-0.5-1.1c-0.3-0.3-0.7-0.5-1.1-0.5V119.9z"/>
	</defs>
	<use xlink:href="#SVGID_13_"  style="overflow:visible;fill:#FFFFFF;"/>
	<clipPath id="SVGID_14_">
		<use xlink:href="#SVGID_13_"  style="overflow:visible;"/>
	</clipPath>
	
		<rect x="102.2" y="103.6" transform="matrix(0.4573 -0.8893 0.8893 0.4573 -39.2983 160.2874)" class="st6" width="19" height="17.4"/>
	<use xlink:href="#SVGID_13_"  style="overflow:visible;fill:none;stroke:#FFFFFF;stroke-miterlimit:10;"/>
</g>
<g>
	<defs>
		<path id="SVGID_15_" d="M89.1,104.9l-7.5,15h1.8l5.8-11.7l3.2,6.4h-3.3c-0.9,0-1.7,0.6-1.7,1.5h5.8l1.9,3.8h1.7L89.1,104.9
			L89.1,104.9z"/>
	</defs>
	<use xlink:href="#SVGID_15_"  style="overflow:visible;fill:#FFFFFF;"/>
	<clipPath id="SVGID_16_">
		<use xlink:href="#SVGID_15_"  style="overflow:visible;"/>
	</clipPath>
	
		<rect x="79" y="102.3" transform="matrix(0.4573 -0.8893 0.8893 0.4573 -51.6448 140.2301)" class="st7" width="20.2" height="20.2"/>
	<use xlink:href="#SVGID_15_"  style="overflow:visible;fill:none;stroke:#FFFFFF;stroke-miterlimit:10;"/>
</g>
<g>
	<defs>
		<path id="SVGID_17_" d="M163.2,104.8l-4.8,6.4l-3.7-4.9c-0.7-0.9-1.7-1.4-2.9-1.4l5.7,7.5l-5.7,7.5h1.8l4.8-6.4l3.7,4.9
			c0.7,0.9,1.7,1.4,2.9,1.4l-5.7-7.5l5.7-7.5H163.2z"/>
	</defs>
	<use xlink:href="#SVGID_17_"  style="overflow:visible;fill:#FFFFFF;"/>
	<clipPath id="SVGID_18_">
		<use xlink:href="#SVGID_17_"  style="overflow:visible;"/>
	</clipPath>
	
		<rect x="148.7" y="103" transform="matrix(0.4573 -0.8893 0.8893 0.4573 -13.8996 201.8167)" class="st8" width="19.4" height="18.6"/>
	<use xlink:href="#SVGID_17_"  style="overflow:visible;fill:none;stroke:#FFFFFF;stroke-miterlimit:10;"/>
</g>
<g>
	<defs>
		<path id="SVGID_19_" d="M129,112.4c0-3.5,2.8-6.4,6.4-6.4c3.5,0,6.4,2.8,6.4,6.4c0,3.5-2.8,6.4-6.4,6.4
			C131.9,118.7,129,115.9,129,112.4 M127.6,112.4c0,4.3,3.5,7.7,7.7,7.7c4.3,0,7.7-3.5,7.7-7.7c0-4.3-3.5-7.7-7.7-7.7
			C131.1,104.7,127.6,108.1,127.6,112.4"/>
	</defs>
	<use xlink:href="#SVGID_19_"  style="overflow:visible;fill:#FFFFFF;"/>
	<clipPath id="SVGID_20_">
		<use xlink:href="#SVGID_19_"  style="overflow:visible;"/>
	</clipPath>
	
		<rect x="125" y="102" transform="matrix(0.4573 -0.8893 0.8893 0.4573 -26.4775 181.402)" class="st9" width="20.9" height="20.9"/>
	<use xlink:href="#SVGID_19_"  style="overflow:visible;fill:none;stroke:#FFFFFF;stroke-miterlimit:10;"/>
</g>
<g>
	<path class="st10" d="M106.7,127.4c-0.2,0-0.2-0.4,0-0.4h1.9c0.1,0,0.2,0.1,0.2,0.2v1.9c0,0.1,0,0.1-0.1,0.1
		c-0.6,0.6-1.3,0.9-2.2,0.9c-0.9,0-1.6-0.3-2.2-0.9c-0.6-0.6-0.9-1.3-0.9-2.2c0-0.9,0.3-1.6,0.9-2.2c0.6-0.6,1.3-0.9,2.2-0.9
		c0.8,0,1.5,0.3,2.1,0.9c0,0,0.1,0.1,0.1,0.2c0,0.1-0.1,0.2-0.2,0.2c-0.1,0-0.1,0-0.2-0.1c-0.5-0.5-1.2-0.8-1.9-0.8
		c-0.7,0-1.4,0.3-1.9,0.8c-0.5,0.5-0.8,1.2-0.8,1.9s0.3,1.4,0.8,1.9c0.5,0.5,1.2,0.8,1.9,0.8c0.7,0,1.3-0.2,1.8-0.7v-1.6H106.7z"/>
	<path class="st10" d="M112.9,124.3c0-0.1,0.1-0.2,0.2-0.2h2.9c0.5,0,0.9,0.2,1.3,0.6c0.4,0.4,0.5,0.8,0.5,1.3c0,0.5-0.2,1-0.5,1.3
		c-0.4,0.4-0.8,0.5-1.3,0.5h0l2,2c0.2,0.2-0.1,0.5-0.3,0.3l-2.3-2.3h-2.1v2.2c0,0.2-0.4,0.2-0.4,0V124.3z M113.3,124.5v3h2.7
		c0.4,0,0.8-0.2,1-0.4c0.3-0.3,0.4-0.6,0.4-1c0-0.4-0.1-0.8-0.4-1.1c-0.3-0.3-0.6-0.4-1-0.4H113.3z"/>
	<path class="st10" d="M121.8,127.1c0-0.9,0.3-1.6,0.9-2.2c0.6-0.6,1.3-0.9,2.2-0.9c0.8,0,1.6,0.3,2.2,0.9c0.6,0.6,0.9,1.3,0.9,2.2
		c0,0.8-0.3,1.6-0.9,2.2c-0.6,0.6-1.3,0.9-2.2,0.9c-0.9,0-1.6-0.3-2.2-0.9C122.1,128.7,121.8,128,121.8,127.1 M122.2,127.1
		c0,0.7,0.3,1.4,0.8,1.9c0.5,0.5,1.2,0.8,1.9,0.8c0.7,0,1.4-0.3,1.9-0.8c0.5-0.5,0.8-1.2,0.8-1.9c0-0.7-0.3-1.4-0.8-1.9
		c-0.5-0.5-1.2-0.8-1.9-0.8c-0.7,0-1.4,0.3-1.9,0.8C122.5,125.8,122.2,126.4,122.2,127.1"/>
	<path class="st10" d="M137.2,124.3c0-0.2,0.4-0.2,0.4,0v3.1c0,0.8-0.3,1.4-0.8,2c-0.5,0.5-1.2,0.8-2,0.8c-0.8,0-1.4-0.3-2-0.8
		c-0.5-0.6-0.8-1.2-0.8-2v-3.1c0-0.2,0.4-0.2,0.4,0v3.1c0,0.7,0.2,1.3,0.7,1.7c0.5,0.5,1.1,0.7,1.7,0.7c0.7,0,1.3-0.2,1.7-0.7
		c0.5-0.5,0.7-1.1,0.7-1.7V124.3z"/>
	<path class="st10" d="M141.9,124.3c0-0.1,0.1-0.2,0.2-0.2h2.9c0.5,0,0.9,0.2,1.3,0.6c0.4,0.4,0.5,0.8,0.5,1.3c0,0.5-0.2,1-0.5,1.3
		c-0.4,0.4-0.8,0.5-1.3,0.5h-2.7v2.2c0,0.2-0.4,0.2-0.4,0V124.3z M142.3,124.5v3h2.7c0.4,0,0.8-0.1,1-0.4c0.3-0.3,0.4-0.6,0.4-1.1
		c0-0.4-0.1-0.8-0.4-1c-0.3-0.3-0.6-0.4-1-0.4H142.3z"/>
</g>
</svg>
