<?xml version="1.0" encoding="utf-8"?>
<!-- Generator: Adobe Illustrator 25.2.0, SVG Export Plug-In . SVG Version: 6.00 Build 0)  -->
<svg version="1.1" id="Layer_1" xmlns="http://www.w3.org/2000/svg" xmlns:xlink="http://www.w3.org/1999/xlink" x="0px" y="0px"
	 viewBox="0 0 841.9 595.3" style="enable-background:new 0 0 841.9 595.3;" xml:space="preserve">
<style type="text/css">
	.st0{clip-path:url(#SVGID_2_);fill:#331643;}
	.st1{fill:#331643;}
	.st2{fill:#E8D700;}
	.st3{clip-path:url(#SVGID_4_);fill:#E8D708;}
	.st4{clip-path:url(#SVGID_4_);fill:none;stroke:#E8D700;stroke-width:7.500000e-02;stroke-miterlimit:10;}
</style>
<g>
	<defs>
		<rect id="SVGID_1_" x="276.1" y="136.2" width="289.7" height="322.8"/>
	</defs>
	<clipPath id="SVGID_2_">
		<use xlink:href="#SVGID_1_"  style="overflow:visible;"/>
	</clipPath>
	<path class="st0" d="M460.1,366.1c14.5,0,25.3,11.1,25.2,25.9c-0.1,14.7-11,25.7-25.5,25.7c-14.3,0-25.3-11.1-25.3-25.6
		C434.5,377.3,445.5,366,460.1,366.1 M459.9,412.9c11.5,0,20.4-9.2,20.3-21c-0.1-11.8-9-21-20.4-21.1c-11.3,0-20.1,9.1-20.1,20.9
		C439.7,403.6,448.6,412.9,459.9,412.9"/>
	<path class="st0" d="M394.6,417v-22.9h-28.8v23c-1.8,0.1-3.3,0.2-5,0.2v-50.5c3.3,0.4,4.8,2.1,4.9,5.7c0.1,5.3,0,10.7,0,16.3h29
		v-22h5.1c0.1,0.6,0.2,1.3,0.2,1.9c0,14,0,28,0,42C400,415,398.6,416.6,394.6,417"/>
	<path class="st0" d="M297.8,404.4c4-7.5,11-3.6,16.6-5.2c-3.4-6.9-6.8-13.7-10.4-21.1c-1.1,2.1-2.1,3.9-3,5.7
		c-4.9,10-9.7,20-14.8,29.9c-2.3,4.4-0.5,3.7-7.4,3.6c8.3-16.8,16.6-33.3,25.1-50.5c8.5,17,16.7,33.6,25,50.3
		c-5.1,0.7-5.1,0.7-7.1-3.1c-0.6-1.3-1.4-2.4-1.9-3.7c-1.9-4.7-3.9-6-9.2-5.9C306.5,404.4,302.4,404.4,297.8,404.4"/>
	<path class="st0" d="M515.8,366.7c4.4,0.2,7.4,1.9,9.6,4.9c3.4,4.6,6.9,9.2,10.3,13.7c0.5,0.7,1.1,1.3,1.8,2.1
		c3.6-4.8,7.2-9.5,10.7-14.2c0.8-1.1,1.5-2.1,2.3-3.2c2.8-3.6,2.8-3.6,8.2-3.1c-6.1,8.2-12.1,16.2-18.3,24.4
		c6.3,8.5,12.7,17,19.3,25.9c-3.8-0.1-6.7-1.4-8.8-4c-4.1-5.2-8-10.6-12.1-15.9c-0.4-0.6-0.9-1.2-1.6-2c-2.8,3.7-5.5,7.3-8.2,10.9
		c-2.5,3.3-4.6,6.9-7.4,9.9c-1.3,1.4-5,1.3-7.1,1.9c-0.2-0.3,13.2-17.9,19.6-26.5C528.2,383.2,522.2,375.2,515.8,366.7"/>
</g>
<polygon class="st1" points="422.3,136.2 416.1,147 416.1,147.1 416.1,147.1 409.9,157.9 409.9,157.9 403.6,168.7 397.4,179.5 
	391.1,190.3 384.9,201.1 378.6,211.9 372.4,222.7 366.2,233.5 359.9,244.4 359.9,244.4 353.7,255.2 347.4,266 341.2,276.8 
	334.9,287.6 328.7,298.4 322.5,309.2 322.5,309.3 322.5,309.3 316.2,320.1 310,330.9 303.7,341.7 303.7,341.7 391.1,341.7 
	397.4,330.9 403.6,320.1 409.9,309.3 409.9,309.3 409.9,309.2 403.6,298.4 397.4,309.2 397.4,309.3 391.1,320.1 384.9,330.9 
	359.9,330.9 366.2,320.1 372.4,309.3 372.4,309.3 372.4,309.2 378.6,298.4 391.1,276.8 384.9,266 378.6,276.8 372.4,287.6 
	366.2,298.4 359.9,309.3 347.4,330.9 322.5,330.9 328.7,320.1 334.9,309.3 334.9,309.2 341.2,298.4 359.9,266 359.9,266 
	366.2,255.2 372.4,244.4 372.4,244.4 378.6,233.6 378.6,233.5 378.7,233.5 384.9,222.7 391.1,211.9 397.4,201.1 397.4,201.1 
	416.1,168.7 416.1,168.7 422.4,157.9 428.6,168.7 428.6,168.7 447.3,201.1 453.6,211.9 459.8,222.7 466.1,233.5 466.1,233.5 
	472.3,244.4 472.3,244.4 478.6,255.2 484.8,266 491,276.8 497.3,287.6 503.5,298.4 503.5,298.4 509.8,309.3 509.8,309.3 516,320.1 
	516,320.1 522.3,330.9 497.3,330.9 484.8,309.3 478.6,298.4 472.3,287.6 466.1,276.8 453.6,276.8 459.8,287.6 466.1,298.4 
	472.3,309.3 478.6,320.1 484.8,330.9 459.8,330.9 453.6,320.1 453.6,320.1 447.3,309.3 441.1,298.4 428.6,276.8 422.3,266 
	422.3,266 416.1,255.2 409.9,244.4 409.9,244.4 403.6,233.5 397.4,244.4 403.6,255.2 409.9,266 409.9,266 416.1,276.8 416.1,276.8 
	422.3,287.6 428.6,298.4 441.1,320.1 447.3,330.9 447.3,330.9 453.6,341.7 541,341.7 534.7,330.9 528.5,320.1 516,298.4 
	509.8,287.6 503.5,276.8 503.5,276.8 497.3,266 497.3,266 491,255.2 484.8,244.4 478.6,233.6 478.6,233.5 459.8,201.1 459.8,201.1 
	453.6,190.3 453.6,190.3 447.3,179.5 441.1,168.7 434.8,157.9 428.6,147.1 428.6,147.1 "/>
<polygon class="st2" points="441.1,190.3 434.8,201.1 428.6,211.9 428.6,211.9 422.4,222.7 416.1,233.6 409.9,244.4 403.6,233.6 
	409.9,222.7 416.1,211.9 422.4,201.1 422.4,201.1 428.6,190.3 434.8,179.5 "/>
<polygon class="st2" points="459.8,222.7 453.6,233.6 447.3,244.4 434.8,266 428.6,276.8 422.4,266 422.4,266 422.4,266 
	428.6,255.2 434.8,244.4 441.1,233.6 447.3,222.7 453.6,211.9 "/>
<polygon class="st2" points="478.5,255.2 472.3,266 472.3,266 466.1,276.8 453.6,276.8 459.8,266 466.1,255.2 472.3,244.4 
	472.3,244.4 "/>
<polygon class="st2" points="397.4,157.9 391.1,168.7 384.9,157.9 322.5,157.9 328.7,168.7 335,179.5 341.2,190.3 347.4,201.1 
	353.7,211.9 353.7,211.9 359.9,222.8 353.7,233.6 341.2,211.9 335,201.1 328.7,190.3 328.7,190.3 322.5,179.5 316.2,168.7 
	316.2,168.7 310,157.9 303.7,147.1 391.1,147.1 "/>
<polygon class="st2" points="378.7,190.3 372.4,201.1 372.4,201.1 366.2,190.3 359.9,179.5 359.9,179.5 353.7,168.7 366.2,168.7 
	372.4,179.5 "/>
<g>
	<defs>
		<rect id="SVGID_3_" x="276.1" y="136.2" width="289.7" height="322.8"/>
	</defs>
	<clipPath id="SVGID_4_">
		<use xlink:href="#SVGID_3_"  style="overflow:visible;"/>
	</clipPath>
	<path class="st3" d="M288.2,450.1H278v7.8c0,0.2-0.1,0.4-0.2,0.5c-0.1,0.1-0.3,0.2-0.5,0.2c-0.2,0-0.3-0.1-0.5-0.2
		c-0.1-0.1-0.2-0.3-0.2-0.5v-16.7c0-0.2,0.1-0.3,0.2-0.4c0.1-0.1,0.3-0.1,0.5-0.1h11.8c0.9,0,1.7,0.1,2.4,0.4
		c0.7,0.3,1.3,0.6,1.8,1.1c0.5,0.4,0.8,1,1.1,1.5c0.2,0.6,0.4,1.2,0.4,1.7c0,0.5-0.1,1.1-0.3,1.6c-0.2,0.5-0.5,1-0.9,1.4
		c-0.4,0.4-0.9,0.8-1.5,1.1c-0.6,0.3-1.3,0.5-2,0.6l6.7,7.5c0.1,0.2,0.2,0.3,0.2,0.4c0,0.2-0.1,0.3-0.2,0.4
		c-0.1,0.1-0.3,0.2-0.5,0.2c-0.2,0-0.4-0.1-0.6-0.2L288.2,450.1z M278,441.8v7.2H289c0.7,0,1.3-0.1,1.9-0.3c0.5-0.2,1-0.5,1.3-0.8
		c0.4-0.3,0.6-0.7,0.8-1.2c0.2-0.4,0.3-0.9,0.3-1.3c0-0.5-0.1-0.9-0.3-1.3c-0.2-0.4-0.4-0.8-0.8-1.2c-0.4-0.3-0.8-0.6-1.3-0.8
		c-0.5-0.2-1.2-0.3-1.9-0.3H278z"/>
	<path class="st4" d="M288.2,450.1H278v7.8c0,0.2-0.1,0.4-0.2,0.5c-0.1,0.1-0.3,0.2-0.5,0.2c-0.2,0-0.3-0.1-0.5-0.2
		c-0.1-0.1-0.2-0.2-0.2-0.5v-16.6c0-0.2,0.1-0.3,0.2-0.4c0.1-0.1,0.3-0.1,0.5-0.1h11.8c0.9,0,1.7,0.1,2.4,0.4
		c0.7,0.3,1.3,0.6,1.8,1.1c0.5,0.5,0.8,1,1.1,1.5c0.2,0.6,0.4,1.2,0.4,1.7c0,0.5-0.1,1.1-0.3,1.6c-0.2,0.5-0.5,1-0.9,1.4
		c-0.4,0.4-0.9,0.8-1.5,1.1c-0.6,0.3-1.2,0.5-2,0.6l6.7,7.4c0.1,0.2,0.2,0.3,0.2,0.4c0,0.2-0.1,0.3-0.2,0.4
		c-0.1,0.1-0.3,0.2-0.5,0.2c-0.2,0-0.4-0.1-0.6-0.2L288.2,450.1z M278,441.8v7.2h11c0.7,0,1.3-0.1,1.9-0.3c0.5-0.2,1-0.5,1.3-0.8
		c0.4-0.3,0.6-0.7,0.8-1.2c0.2-0.4,0.3-0.9,0.3-1.3c0-0.4-0.1-0.9-0.3-1.3c-0.2-0.4-0.4-0.8-0.8-1.2c-0.4-0.3-0.8-0.6-1.3-0.8
		c-0.5-0.2-1.2-0.3-1.9-0.3H278z"/>
	<path class="st3" d="M307.8,458.3c-0.1,0-0.2,0-0.3-0.1c-0.1-0.1-0.2-0.2-0.2-0.3v-16.7c0-0.1,0.1-0.2,0.2-0.3
		c0.2-0.1,0.3-0.1,0.5-0.1h14.8c0.2,0,0.4,0.1,0.5,0.2c0.1,0.1,0.2,0.2,0.2,0.4c0,0.1-0.1,0.2-0.2,0.4c-0.1,0.1-0.3,0.2-0.5,0.2
		h-14.1v6.9h12.9c0.2,0,0.4,0.1,0.5,0.2c0.1,0.1,0.2,0.2,0.2,0.4c0,0.1-0.1,0.3-0.2,0.4c-0.1,0.1-0.3,0.2-0.5,0.2h-12.9v7.5h14.1
		c0.2,0,0.4,0.1,0.5,0.2c0.1,0.1,0.2,0.2,0.2,0.4c0,0.1-0.1,0.2-0.2,0.4c-0.1,0.1-0.3,0.2-0.5,0.2H307.8z"/>
	<path class="st4" d="M307.9,458.3c-0.1,0-0.2,0-0.3-0.1c-0.1-0.1-0.2-0.2-0.2-0.3v-16.6c0-0.1,0.1-0.3,0.2-0.3
		c0.2-0.1,0.3-0.1,0.4-0.1h14.7c0.2,0,0.4,0.1,0.5,0.2c0.1,0.1,0.2,0.2,0.2,0.4c0,0.1-0.1,0.3-0.2,0.4c-0.1,0.1-0.3,0.2-0.5,0.2h-14
		v6.8h12.8c0.2,0,0.4,0.1,0.5,0.2c0.1,0.1,0.2,0.2,0.2,0.4c0,0.1-0.1,0.2-0.2,0.4c-0.1,0.1-0.3,0.2-0.5,0.2h-12.8v7.4h14
		c0.2,0,0.4,0.1,0.5,0.2c0.1,0.1,0.2,0.3,0.2,0.4c0,0.1-0.1,0.3-0.2,0.4c-0.1,0.1-0.3,0.2-0.5,0.2H307.9z"/>
	<path class="st3" d="M351.3,453.8h-14.5l-2.9,4.5c-0.1,0.2-0.3,0.3-0.6,0.3c-0.2,0-0.4-0.1-0.5-0.2c-0.1-0.1-0.2-0.3-0.2-0.4
		c0-0.1,0-0.2,0.1-0.3l10.8-16.8c0.1-0.2,0.3-0.3,0.6-0.3c0.3,0,0.5,0.1,0.6,0.3l10.8,16.8c0.1,0.1,0.1,0.2,0.1,0.3
		c0,0.2-0.1,0.3-0.2,0.4c-0.2,0.1-0.3,0.2-0.5,0.2c-0.3,0-0.5-0.1-0.6-0.3L351.3,453.8z M344,442.5l-6.6,10.3h13.2L344,442.5z"/>
	<path class="st4" d="M351.3,453.8h-14.4l-2.9,4.5c-0.1,0.2-0.3,0.3-0.6,0.3c-0.2,0-0.4-0.1-0.5-0.2c-0.1-0.1-0.2-0.3-0.2-0.4
		c0-0.1,0-0.2,0.1-0.3l10.7-16.7c0.1-0.2,0.3-0.3,0.6-0.3c0.3,0,0.5,0.1,0.6,0.3l10.7,16.7c0.1,0.1,0.1,0.2,0.1,0.3
		c0,0.2-0.1,0.3-0.2,0.4c-0.2,0.1-0.3,0.2-0.5,0.2c-0.3,0-0.5-0.1-0.6-0.3L351.3,453.8z M344,442.5l-6.6,10.2h13.1L344,442.5z"/>
	<path class="st3" d="M365.9,458.3c-0.1,0-0.3,0-0.4-0.1c-0.2-0.1-0.2-0.2-0.2-0.4v-16.7c0-0.2,0.1-0.3,0.2-0.4
		c0.2-0.1,0.3-0.1,0.5-0.1c0.2,0,0.4,0.1,0.5,0.1c0.1,0.1,0.2,0.2,0.2,0.4v16.1h14.1c0.1,0,0.3,0.1,0.4,0.1c0.1,0.1,0.2,0.2,0.2,0.4
		c0,0.2-0.1,0.3-0.2,0.4c-0.1,0.1-0.3,0.1-0.4,0.1H365.9z"/>
	<path class="st4" d="M365.9,458.3c-0.1,0-0.3,0-0.4-0.1c-0.2-0.1-0.2-0.2-0.2-0.4v-16.6c0-0.2,0.1-0.3,0.2-0.4
		c0.1-0.1,0.3-0.1,0.5-0.1c0.2,0,0.4,0,0.5,0.1c0.1,0.1,0.2,0.2,0.2,0.3v16h14c0.1,0,0.3,0.1,0.4,0.1c0.1,0.1,0.2,0.2,0.2,0.4
		c0,0.2-0.1,0.3-0.2,0.4c-0.1,0.1-0.3,0.1-0.4,0.1H365.9z"/>
	<path class="st3" d="M413.6,458.3c-0.1,0-0.2,0-0.3-0.1c-0.1-0.1-0.2-0.2-0.2-0.3v-16.7c0-0.1,0.1-0.2,0.2-0.3
		c0.1-0.1,0.3-0.1,0.4-0.1h14.5c0.2,0,0.4,0.1,0.5,0.2c0.1,0.1,0.2,0.2,0.2,0.4c0,0.1-0.1,0.2-0.2,0.4c-0.1,0.1-0.3,0.2-0.5,0.2
		h-13.8v6.9h12.6c0.2,0,0.4,0.1,0.5,0.2c0.1,0.1,0.2,0.2,0.2,0.4c0,0.1-0.1,0.3-0.2,0.4c-0.1,0.1-0.3,0.2-0.5,0.2h-12.6v7.5h13.8
		c0.2,0,0.4,0.1,0.5,0.2c0.1,0.1,0.2,0.2,0.2,0.4c0,0.1-0.1,0.2-0.2,0.4c-0.1,0.1-0.3,0.2-0.5,0.2H413.6z"/>
	<path class="st4" d="M413.6,458.3c-0.1,0-0.2,0-0.3-0.1c-0.1-0.1-0.2-0.2-0.2-0.3v-16.6c0-0.1,0.1-0.3,0.2-0.3
		c0.1-0.1,0.3-0.1,0.4-0.1h14.4c0.2,0,0.4,0.1,0.5,0.2c0.1,0.1,0.2,0.2,0.2,0.4c0,0.1-0.1,0.3-0.2,0.4c-0.1,0.1-0.3,0.2-0.5,0.2
		h-13.7v6.8H427c0.2,0,0.4,0.1,0.5,0.2c0.1,0.1,0.2,0.2,0.2,0.4c0,0.1-0.1,0.2-0.2,0.4c-0.1,0.1-0.3,0.2-0.5,0.2h-12.5v7.4h13.7
		c0.2,0,0.4,0.1,0.5,0.2c0.1,0.1,0.2,0.3,0.2,0.4c0,0.1-0.1,0.3-0.2,0.4c-0.1,0.1-0.3,0.2-0.5,0.2H413.6z"/>
	<path class="st3" d="M438.7,455.3c0.7,0.4,1.4,0.7,2.1,1c0.7,0.3,1.5,0.5,2.2,0.7c0.7,0.2,1.5,0.3,2.2,0.4c0.7,0.1,1.5,0.1,2.2,0.1
		c0.4,0,0.9,0,1.5-0.1c0.5,0,1.1-0.1,1.7-0.2c0.6-0.1,1.2-0.2,1.8-0.4c0.6-0.2,1.1-0.4,1.6-0.7c0.5-0.3,0.9-0.6,1.1-1
		c0.3-0.4,0.4-0.8,0.4-1.3c0-0.7-0.2-1.3-0.7-1.7c-0.5-0.5-1.1-0.8-1.9-1.1c-0.8-0.3-1.7-0.6-2.8-0.8c-1-0.2-2.1-0.4-3.1-0.6
		c-1.1-0.2-2.1-0.4-3.1-0.6c-1-0.2-1.9-0.5-2.7-0.9c-0.8-0.4-1.5-0.8-1.9-1.3c-0.5-0.5-0.7-1.1-0.7-1.9c0-0.7,0.2-1.2,0.4-1.7
		c0.3-0.5,0.7-0.9,1.2-1.2c0.5-0.3,1.1-0.6,1.7-0.8c0.6-0.2,1.3-0.4,2-0.5c0.7-0.1,1.3-0.2,2-0.3c0.6,0,1.3-0.1,1.8-0.1
		c0.5,0,1.1,0,1.7,0.1c0.6,0.1,1.2,0.2,1.8,0.3c0.6,0.1,1.2,0.3,1.8,0.4c0.6,0.2,1.1,0.4,1.6,0.5c0.4,0.2,0.8,0.4,1.1,0.5
		c0.3,0.2,0.4,0.3,0.4,0.5c0,0.2-0.1,0.3-0.2,0.4c-0.1,0.1-0.2,0.1-0.4,0.1c-0.1,0-0.2,0-0.3-0.1c-0.3-0.2-0.7-0.3-1.3-0.5
		c-0.5-0.2-1.1-0.4-1.8-0.6c-0.7-0.2-1.4-0.3-2.2-0.4c-0.8-0.1-1.6-0.2-2.4-0.2c-1.2,0-2.2,0.1-3.1,0.2c-0.9,0.2-1.7,0.4-2.4,0.7
		c-0.7,0.3-1.2,0.7-1.5,1.1c-0.4,0.4-0.5,1-0.5,1.6c0,0.5,0.2,1,0.7,1.4c0.5,0.4,1.1,0.7,1.9,0.9c0.8,0.3,1.7,0.5,2.8,0.7
		c1,0.2,2.1,0.4,3.1,0.6c1.1,0.2,2.1,0.4,3.1,0.7c1,0.3,1.9,0.6,2.7,1c0.8,0.4,1.5,0.9,1.9,1.5c0.5,0.6,0.7,1.3,0.7,2.1
		c0,0.9-0.3,1.6-0.9,2.2c-0.6,0.6-1.4,1.1-2.3,1.4c-0.9,0.4-2,0.7-3.1,0.8c-1.1,0.2-2.2,0.3-3.2,0.3c-0.9,0-1.7-0.1-2.6-0.2
		c-0.9-0.1-1.7-0.3-2.5-0.5c-0.8-0.2-1.6-0.5-2.4-0.8c-0.7-0.3-1.4-0.7-2.1-1.2c-0.1-0.1-0.2-0.2-0.2-0.4s0.1-0.3,0.2-0.4
		c0.1-0.1,0.2-0.1,0.4-0.1C438.5,455.1,438.6,455.2,438.7,455.3"/>
	<path class="st4" d="M438.8,455.3c0.7,0.4,1.3,0.7,2.1,1c0.7,0.3,1.5,0.5,2.2,0.7c0.7,0.2,1.5,0.3,2.2,0.4c0.7,0.1,1.5,0.1,2.2,0.1
		c0.4,0,0.9,0,1.4-0.1c0.6,0,1.1-0.1,1.7-0.2c0.6-0.1,1.2-0.2,1.8-0.4c0.6-0.2,1.1-0.4,1.6-0.7c0.5-0.3,0.8-0.6,1.1-1
		c0.3-0.4,0.4-0.8,0.4-1.3c0-0.7-0.2-1.2-0.7-1.7c-0.5-0.4-1.1-0.8-1.9-1.1c-0.8-0.3-1.7-0.6-2.7-0.8c-1-0.2-2.1-0.4-3.1-0.6
		c-1.1-0.2-2.1-0.4-3.1-0.6c-1-0.2-1.9-0.5-2.7-0.9c-0.8-0.3-1.5-0.8-1.9-1.3c-0.5-0.5-0.7-1.1-0.7-1.9c0-0.6,0.2-1.2,0.4-1.7
		c0.3-0.5,0.7-0.9,1.2-1.2c0.5-0.3,1.1-0.6,1.7-0.8c0.6-0.2,1.3-0.4,2-0.5c0.7-0.1,1.3-0.2,2-0.3c0.6,0,1.2-0.1,1.8-0.1
		c0.5,0,1.1,0,1.7,0.1c0.6,0.1,1.2,0.2,1.8,0.3c0.6,0.1,1.2,0.3,1.8,0.4c0.6,0.2,1.1,0.3,1.6,0.5c0.4,0.2,0.8,0.4,1.1,0.5
		c0.3,0.2,0.4,0.3,0.4,0.5c0,0.1-0.1,0.3-0.2,0.4c-0.1,0.1-0.2,0.1-0.4,0.1s-0.3,0-0.4-0.1c-0.3-0.2-0.7-0.3-1.2-0.5
		c-0.5-0.2-1.1-0.4-1.8-0.5c-0.7-0.2-1.4-0.3-2.2-0.4c-0.8-0.1-1.6-0.2-2.4-0.2c-1.1,0-2.2,0.1-3.1,0.2c-0.9,0.1-1.7,0.4-2.4,0.7
		c-0.7,0.3-1.2,0.7-1.5,1.1c-0.4,0.4-0.5,1-0.5,1.6c0,0.5,0.2,1,0.7,1.4c0.5,0.4,1.1,0.7,1.9,0.9c0.8,0.3,1.7,0.5,2.7,0.7
		c1,0.2,2.1,0.4,3.1,0.6c1,0.2,2.1,0.4,3.1,0.7c1,0.3,1.9,0.6,2.7,1c0.8,0.4,1.4,0.9,1.9,1.5c0.5,0.6,0.7,1.3,0.7,2.1
		c0,0.8-0.3,1.6-0.9,2.1c-0.6,0.6-1.4,1.1-2.3,1.4c-0.9,0.4-1.9,0.7-3.1,0.8c-1.1,0.2-2.2,0.3-3.2,0.3c-0.9,0-1.7-0.1-2.6-0.2
		c-0.9-0.1-1.7-0.3-2.5-0.5c-0.8-0.2-1.6-0.5-2.3-0.8c-0.7-0.3-1.4-0.7-2.1-1.1c-0.1-0.1-0.2-0.2-0.2-0.4c0-0.1,0.1-0.3,0.2-0.4
		c0.1-0.1,0.2-0.1,0.4-0.1C438.5,455.1,438.7,455.2,438.8,455.3z"/>
	<path class="st3" d="M474.3,441.8h-9.2c-0.1,0-0.3-0.1-0.4-0.1c-0.1-0.1-0.2-0.2-0.2-0.4c0-0.2,0.1-0.3,0.2-0.4
		c0.1-0.1,0.3-0.1,0.4-0.1h19.8c0.1,0,0.3,0.1,0.4,0.1c0.1,0.1,0.2,0.2,0.2,0.4c0,0.2-0.1,0.3-0.2,0.4c-0.1,0.1-0.3,0.1-0.4,0.1
		h-9.2V458c0,0.2-0.1,0.4-0.2,0.5c-0.1,0.1-0.3,0.2-0.5,0.2c-0.2,0-0.3-0.1-0.5-0.2c-0.1-0.1-0.2-0.3-0.2-0.5V441.8z"/>
	<path class="st4" d="M474.3,441.8h-9.1c-0.1,0-0.3,0-0.4-0.1c-0.1-0.1-0.2-0.2-0.2-0.4s0.1-0.3,0.2-0.4c0.1-0.1,0.3-0.1,0.4-0.1
		h19.6c0.1,0,0.3,0.1,0.4,0.1c0.1,0.1,0.2,0.2,0.2,0.4s-0.1,0.3-0.2,0.4c-0.1,0.1-0.3,0.1-0.4,0.1h-9.1v16.1c0,0.2-0.1,0.4-0.2,0.5
		c-0.1,0.1-0.3,0.2-0.5,0.2c-0.2,0-0.3-0.1-0.5-0.2c-0.1-0.1-0.2-0.2-0.2-0.5V441.8z"/>
	<path class="st3" d="M509.8,453.8h-14.2l-2.9,4.5c-0.1,0.2-0.3,0.3-0.6,0.3c-0.2,0-0.4-0.1-0.5-0.2c-0.1-0.1-0.2-0.3-0.2-0.4
		c0-0.1,0-0.2,0.1-0.3l10.6-16.8c0.1-0.2,0.3-0.3,0.6-0.3c0.3,0,0.5,0.1,0.6,0.3l10.5,16.8c0.1,0.1,0.1,0.2,0.1,0.3
		c0,0.2-0.1,0.3-0.2,0.4c-0.1,0.1-0.3,0.2-0.5,0.2c-0.2,0-0.4-0.1-0.6-0.3L509.8,453.8z M502.7,442.5l-6.5,10.3h13L502.7,442.5z"/>
	<path class="st4" d="M509.8,453.8h-14.2l-2.8,4.5c-0.1,0.2-0.3,0.3-0.6,0.3c-0.2,0-0.4-0.1-0.5-0.2c-0.1-0.1-0.2-0.3-0.2-0.4
		c0-0.1,0-0.2,0.1-0.3l10.5-16.7c0.1-0.2,0.3-0.3,0.6-0.3c0.3,0,0.5,0.1,0.6,0.3l10.5,16.7c0.1,0.1,0.1,0.2,0.1,0.3
		c0,0.2-0.1,0.3-0.2,0.4c-0.1,0.1-0.3,0.2-0.5,0.2c-0.2,0-0.4-0.1-0.6-0.3L509.8,453.8z M502.7,442.5l-6.4,10.2h12.9L502.7,442.5z"
		/>
	<path class="st3" d="M529.7,441.8h-9.2c-0.1,0-0.3-0.1-0.4-0.1c-0.1-0.1-0.2-0.2-0.2-0.4c0-0.2,0.1-0.3,0.2-0.4
		c0.1-0.1,0.3-0.1,0.4-0.1h19.8c0.1,0,0.3,0.1,0.4,0.1c0.1,0.1,0.2,0.2,0.2,0.4c0,0.2-0.1,0.3-0.2,0.4c-0.1,0.1-0.3,0.1-0.4,0.1
		h-9.2V458c0,0.2-0.1,0.4-0.2,0.5c-0.1,0.1-0.3,0.2-0.5,0.2c-0.2,0-0.3-0.1-0.5-0.2c-0.1-0.1-0.2-0.3-0.2-0.5V441.8z"/>
	<path class="st4" d="M529.7,441.8h-9.1c-0.1,0-0.3,0-0.4-0.1c-0.1-0.1-0.2-0.2-0.2-0.4s0.1-0.3,0.2-0.4c0.1-0.1,0.3-0.1,0.4-0.1
		h19.7c0.1,0,0.3,0.1,0.4,0.1c0.1,0.1,0.2,0.2,0.2,0.4s-0.1,0.3-0.2,0.4c-0.1,0.1-0.3,0.1-0.4,0.1h-9.1v16.1c0,0.2-0.1,0.4-0.2,0.5
		c-0.1,0.1-0.3,0.2-0.5,0.2c-0.2,0-0.3-0.1-0.5-0.2c-0.1-0.1-0.2-0.2-0.2-0.5V441.8z"/>
	<path class="st3" d="M549.9,458.3c-0.1,0-0.2,0-0.3-0.1c-0.1-0.1-0.2-0.2-0.2-0.3v-16.7c0-0.1,0.1-0.2,0.2-0.3
		c0.1-0.1,0.3-0.1,0.4-0.1h14.5c0.2,0,0.4,0.1,0.5,0.2c0.1,0.1,0.2,0.2,0.2,0.4c0,0.1-0.1,0.2-0.2,0.4c-0.1,0.1-0.3,0.2-0.5,0.2
		h-13.8v6.9h12.6c0.2,0,0.4,0.1,0.5,0.2c0.1,0.1,0.2,0.2,0.2,0.4c0,0.1-0.1,0.3-0.2,0.4c-0.1,0.1-0.3,0.2-0.5,0.2h-12.6v7.5h13.8
		c0.2,0,0.4,0.1,0.5,0.2c0.1,0.1,0.2,0.2,0.2,0.4c0,0.1-0.1,0.2-0.2,0.4c-0.1,0.1-0.3,0.2-0.5,0.2H549.9z"/>
	<path class="st4" d="M550,458.3c-0.1,0-0.2,0-0.3-0.1c-0.1-0.1-0.2-0.2-0.2-0.3v-16.6c0-0.1,0.1-0.3,0.2-0.3
		c0.1-0.1,0.3-0.1,0.4-0.1h14.4c0.2,0,0.4,0.1,0.5,0.2c0.1,0.1,0.2,0.2,0.2,0.4c0,0.1-0.1,0.3-0.2,0.4c-0.1,0.1-0.3,0.2-0.5,0.2
		h-13.7v6.8h12.5c0.2,0,0.4,0.1,0.5,0.2c0.1,0.1,0.2,0.2,0.2,0.4c0,0.1-0.1,0.2-0.2,0.4c-0.1,0.1-0.3,0.2-0.5,0.2h-12.5v7.4h13.7
		c0.2,0,0.4,0.1,0.5,0.2c0.1,0.1,0.2,0.3,0.2,0.4c0,0.1-0.1,0.3-0.2,0.4c-0.1,0.1-0.3,0.2-0.5,0.2H550z"/>
</g>
</svg>
