<?xml version="1.0" encoding="utf-8"?>
<!-- Generator: Adobe Illustrator 25.2.0, SVG Export Plug-In . SVG Version: 6.00 Build 0)  -->
<svg version="1.1" id="Layer_1" xmlns="http://www.w3.org/2000/svg" xmlns:xlink="http://www.w3.org/1999/xlink" x="0px" y="0px"
	 viewBox="0 0 841.9 595.3" style="enable-background:new 0 0 841.9 595.3;" xml:space="preserve">
<style type="text/css">
	.st0{clip-path:url(#SVGID_2_);fill:#331643;}
	.st1{fill:#331643;}
	.st2{fill:#20B3AA;}
	.st3{clip-path:url(#SVGID_4_);fill:#20B3AA;}
</style>
<g>
	<defs>
		<rect id="SVGID_1_" x="278.7" y="122.4" width="284.5" height="350.5"/>
	</defs>
	<clipPath id="SVGID_2_">
		<use xlink:href="#SVGID_1_"  style="overflow:visible;"/>
	</clipPath>
	<path class="st0" d="M463.2,351.6c14.5,0,25.2,11.1,25.2,25.9c-0.1,14.7-11,25.7-25.5,25.7c-14.3,0-25.2-11.1-25.2-25.6
		C437.7,362.8,448.7,351.6,463.2,351.6 M463,398.4c11.5,0,20.3-9.2,20.2-21c-0.1-11.8-9-21-20.3-21c-11.3,0-20,9.1-20.1,20.8
		C442.9,389.1,451.8,398.4,463,398.4"/>
	<path class="st0" d="M398,402.5v-22.9h-28.7v22.9c-1.8,0.1-3.3,0.1-5,0.2v-50.3c3.3,0.4,4.8,2.1,4.8,5.7c0.1,5.3,0,10.6,0,16.2H398
		v-22h5.1c0.1,0.6,0.2,1.3,0.2,1.9c0,13.9,0,27.9,0,41.8C403.3,400.5,402,402.1,398,402.5"/>
	<path class="st0" d="M301.3,389.9c4-7.5,10.9-3.6,16.6-5.2c-3.4-6.9-6.7-13.7-10.4-21c-1.1,2.1-2.1,3.9-2.9,5.6
		c-4.9,9.9-9.7,20-14.7,29.8c-2.3,4.4-0.5,3.7-7.4,3.5c8.3-16.7,16.5-33.3,25.1-50.4c8.4,17,16.6,33.5,24.9,50.2
		c-5.1,0.7-5.1,0.7-7.1-3.1c-0.6-1.2-1.4-2.4-1.9-3.7c-1.9-4.6-3.9-6-9.2-5.9C310.1,389.9,306,389.9,301.3,389.9"/>
	<path class="st0" d="M518.9,352.2c4.4,0.2,7.3,1.9,9.6,4.9c3.4,4.6,6.8,9.1,10.2,13.7c0.5,0.7,1.1,1.2,1.8,2.1
		c3.6-4.8,7.2-9.5,10.7-14.2c0.8-1,1.5-2.1,2.3-3.2c2.8-3.6,2.8-3.6,8.2-3.1c-6.1,8.2-12.1,16.1-18.2,24.3
		c6.3,8.5,12.6,17,19.2,25.8c-3.8-0.1-6.7-1.4-8.8-4c-4.1-5.2-8-10.6-12-15.9c-0.5-0.6-0.9-1.2-1.6-2c-2.8,3.7-5.5,7.3-8.1,10.8
		c-2.5,3.3-4.6,6.9-7.4,9.8c-1.3,1.4-5,1.3-7,1.9c-0.2-0.3,13.1-17.9,19.5-26.4C531.2,368.7,525.2,360.7,518.9,352.2"/>
</g>
<polygon class="st1" points="425.6,122.4 419.4,133.1 419.4,133.2 419.4,133.2 413.2,143.9 413.2,143.9 406.9,154.7 400.7,165.5 
	394.5,176.3 388.2,187.1 382,197.9 375.8,208.7 369.6,219.4 363.3,230.2 363.3,230.2 357.1,241 350.9,251.8 344.6,262.6 
	338.4,273.4 332.2,284.2 332.2,284.2 326,295 326,295 319.7,305.7 313.5,316.5 307.3,327.3 307.3,327.3 394.5,327.3 400.7,316.5 
	406.9,305.7 413.2,295 413.2,295 413.2,295 406.9,284.2 400.7,295 400.7,295 394.5,305.7 388.3,316.5 363.3,316.5 369.6,305.7 
	375.8,295 375.8,295 375.8,295 382,284.2 394.5,262.6 388.2,251.8 382,262.6 375.8,273.4 369.6,284.2 363.3,295 350.9,316.5 
	326,316.5 332.2,305.7 332.2,305.7 338.4,295 338.4,295 344.6,284.2 344.6,284.2 363.3,251.8 363.3,251.8 369.6,241 375.8,230.2 
	382,219.5 382,219.4 382,219.4 388.2,208.7 394.5,197.9 400.7,187.1 400.7,187.1 419.4,154.7 419.4,154.7 425.6,143.9 431.9,154.7 
	431.9,154.7 450.5,187.1 456.8,197.9 463,208.7 469.2,219.4 469.2,219.4 475.4,230.2 475.4,230.2 481.7,241 487.9,251.8 
	494.1,262.6 500.3,273.4 506.6,284.2 506.6,284.2 512.8,295 512.8,295 519,305.7 519,305.7 525.3,316.5 500.3,316.5 487.9,295 
	481.7,284.2 475.4,273.4 469.2,262.6 456.8,262.6 463,273.4 469.2,284.2 475.4,295 481.7,305.7 487.9,316.5 463,316.5 456.8,305.7 
	456.7,305.7 450.5,295 444.3,284.2 444.3,284.2 431.9,262.6 425.6,251.8 425.6,251.8 419.4,241 413.2,230.2 406.9,219.4 
	400.7,230.2 406.9,241 413.2,251.8 413.2,251.8 419.4,262.6 419.4,262.6 425.6,273.4 431.9,284.2 431.9,284.2 444.3,305.7 
	450.5,316.5 450.5,316.5 456.8,327.3 543.9,327.3 537.7,316.5 531.5,305.7 519,284.2 519,284.2 512.8,273.4 506.6,262.6 
	506.6,262.6 500.3,251.8 500.3,251.8 494.1,241 487.9,230.2 481.7,219.5 481.7,219.4 463,187.1 463,187.1 456.8,176.3 456.7,176.3 
	450.5,165.5 444.3,154.7 438.1,143.9 431.9,133.2 "/>
<polygon class="st2" points="444.3,176.3 438.1,187.1 431.8,197.9 431.8,197.9 425.6,208.7 419.4,219.5 413.2,230.2 406.9,219.5 
	413.2,208.7 419.4,197.9 425.6,187.1 425.6,187.1 431.8,176.3 438.1,165.5 "/>
<polygon class="st2" points="463,208.7 456.8,219.4 450.5,230.3 438.1,251.8 431.8,262.6 425.6,251.8 425.6,251.8 431.8,241 
	438.1,230.3 444.3,219.4 450.5,208.7 456.8,197.9 "/>
<polygon class="st2" points="481.7,241 475.5,251.8 475.4,251.8 469.2,262.6 456.8,262.6 463,251.8 469.2,241 475.4,230.2 
	475.5,230.2 "/>
<polygon class="st2" points="400.7,143.9 394.5,154.7 388.3,143.9 326,143.9 332.2,154.7 338.4,165.5 344.7,176.3 350.9,187.1 
	357.1,197.9 357.1,197.9 357.1,197.9 363.3,208.7 357.1,219.4 344.7,197.9 344.7,197.9 338.4,187.1 332.2,176.3 332.2,176.3 
	326,165.5 319.8,154.7 319.7,154.7 313.5,143.9 307.3,133.2 394.5,133.2 "/>
<polygon class="st2" points="382,176.3 375.8,187.1 375.8,187.1 369.6,176.3 363.3,165.5 363.3,165.5 357.1,154.7 369.6,154.7 
	375.8,165.5 "/>
<g>
	<defs>
		<rect id="SVGID_3_" x="278.7" y="122.4" width="284.5" height="350.5"/>
	</defs>
	<clipPath id="SVGID_4_">
		<use xlink:href="#SVGID_3_"  style="overflow:visible;"/>
	</clipPath>
	<path class="st3" d="M289.1,445.3c-1.4,0-2.6-0.2-3.8-0.7c-1.2-0.5-2.2-1.2-3.2-2c-0.9-0.9-1.6-1.8-2.1-3c-0.5-1.1-0.8-2.3-0.8-3.6
		c0-1.2,0.3-2.4,0.8-3.5c0.5-1.1,1.2-2.1,2.1-2.9c0.9-0.9,1.9-1.5,3.2-2c1.2-0.5,2.5-0.7,3.9-0.7c1.2,0,2.3,0.2,3.3,0.5
		c1,0.3,2,0.8,2.9,1.5c0.1,0.1,0.2,0.3,0.2,0.5c0,0.2-0.1,0.4-0.2,0.5c-0.1,0.1-0.3,0.2-0.6,0.2c-0.1,0-0.1,0-0.2,0
		c-0.1,0-0.1-0.1-0.2-0.1c-0.1,0-0.1-0.1-0.2-0.1c-0.7-0.6-1.4-1-2.3-1.2c-0.9-0.3-1.8-0.4-2.8-0.4c-1.1,0-2.2,0.2-3.2,0.6
		c-1,0.4-1.9,1-2.7,1.7c-0.8,0.7-1.4,1.6-1.8,2.5c-0.4,0.9-0.6,1.9-0.6,3c0,1.1,0.2,2.1,0.6,3c0.4,1,1,1.8,1.8,2.5
		c0.8,0.7,1.7,1.3,2.7,1.7c1,0.4,2.1,0.6,3.2,0.6c1,0,1.9-0.1,2.8-0.4c0.9-0.3,1.7-0.7,2.4-1.3c0.1-0.1,0.3-0.1,0.5-0.1
		c0.2,0,0.3,0.1,0.5,0.2c0.1,0.1,0.2,0.3,0.2,0.5c0,0.1,0,0.2,0,0.3c0,0.1-0.1,0.1-0.1,0.2c-0.8,0.8-1.8,1.3-2.9,1.6
		C291.4,445.1,290.3,445.3,289.1,445.3"/>
	<path class="st3" d="M314.9,445.3c-1.5,0-2.8-0.2-4-0.7c-1.2-0.5-2.3-1.1-3.2-1.9c-0.9-0.8-1.6-1.8-2.1-2.9
		c-0.5-1.1-0.8-2.3-0.8-3.7c0-1.3,0.3-2.5,0.8-3.6c0.5-1.1,1.2-2.1,2.1-2.9c0.9-0.8,2-1.5,3.2-1.9c1.2-0.5,2.6-0.7,4-0.7
		c1.5,0,2.8,0.2,4,0.7c1.2,0.4,2.3,1.1,3.2,1.9c0.9,0.8,1.6,1.8,2.1,2.9c0.5,1.1,0.8,2.3,0.8,3.6c0,1.3-0.3,2.6-0.8,3.7
		c-0.5,1.1-1.2,2.1-2.1,2.9c-0.9,0.8-2,1.5-3.2,1.9C317.7,445,316.4,445.3,314.9,445.3 M314.9,443.9c1.2,0,2.3-0.2,3.4-0.6
		c1-0.4,2-0.9,2.7-1.7c0.8-0.7,1.4-1.5,1.8-2.5c0.4-0.9,0.6-2,0.6-3.1c0-1.1-0.2-2.1-0.6-3.1c-0.4-1-1-1.8-1.8-2.5
		c-0.8-0.7-1.7-1.3-2.7-1.7c-1.1-0.4-2.2-0.6-3.4-0.6c-1.2,0-2.4,0.2-3.4,0.6c-1.1,0.4-2,0.9-2.8,1.7c-0.8,0.7-1.4,1.5-1.8,2.5
		c-0.4,0.9-0.6,2-0.6,3.1c0,1.1,0.2,2.2,0.6,3.1c0.4,1,1,1.8,1.8,2.5c0.8,0.7,1.7,1.3,2.8,1.7C312.5,443.7,313.7,443.9,314.9,443.9"
		/>
	<path class="st3" d="M335.9,445c-0.2,0-0.4-0.1-0.5-0.2c-0.1-0.1-0.2-0.3-0.2-0.5v-16.6c0-0.2,0.1-0.4,0.2-0.5
		c0.1-0.1,0.3-0.2,0.5-0.2c0.2,0,0.4,0.1,0.6,0.2l12.9,15.2v-14.8c0-0.2,0.1-0.4,0.2-0.5c0.1-0.1,0.3-0.2,0.5-0.2
		c0.2,0,0.4,0.1,0.5,0.2c0.2,0.1,0.2,0.3,0.2,0.5v16.6c0,0.2-0.1,0.4-0.2,0.5c-0.2,0.1-0.3,0.2-0.5,0.2c-0.1,0-0.2,0-0.3-0.1
		c-0.1,0-0.2-0.1-0.2-0.2l-12.9-15.3v14.8c0,0.2-0.1,0.4-0.2,0.5C336.3,445,336.2,445,335.9,445"/>
	<path class="st3" d="M368,445.3c-1.1,0-2-0.1-2.9-0.4c-0.9-0.3-1.7-0.7-2.3-1.2c-0.6-0.5-1.2-1.1-1.5-1.8c-0.1-0.2-0.1-0.4,0-0.5
		c0.1-0.2,0.3-0.3,0.5-0.4c0.2-0.1,0.4-0.1,0.6,0c0.2,0.1,0.3,0.2,0.4,0.4c0.3,0.5,0.7,0.9,1.2,1.3s1.1,0.6,1.8,0.8
		c0.7,0.2,1.5,0.3,2.3,0.3c1,0,1.8-0.1,2.5-0.5c0.7-0.3,1.2-0.7,1.6-1.3c0.4-0.6,0.6-1.3,0.6-2.1c0-1-0.4-1.9-1.2-2.6
		c-0.8-0.7-2-1.1-3.7-1.4c-1.9-0.2-3.4-0.8-4.4-1.7c-1.1-0.9-1.6-1.9-1.6-3.2c0-0.9,0.3-1.7,0.8-2.4c0.5-0.7,1.2-1.2,2.1-1.6
		c0.9-0.4,1.9-0.6,3.1-0.6c0.9,0,1.7,0.1,2.4,0.4c0.7,0.3,1.4,0.6,1.9,1c0.6,0.4,1,0.9,1.3,1.3c0.1,0.2,0.1,0.3,0.1,0.5
		c-0.1,0.2-0.2,0.3-0.4,0.4c-0.2,0.1-0.4,0.1-0.6,0c-0.2-0.1-0.3-0.1-0.5-0.3c-0.2-0.3-0.5-0.6-0.9-1c-0.4-0.3-0.8-0.6-1.4-0.8
		c-0.6-0.2-1.2-0.3-2-0.3c-1.4,0-2.5,0.3-3.3,0.8c-0.8,0.6-1.2,1.4-1.2,2.4c0,0.5,0.2,1.1,0.5,1.5c0.3,0.4,0.8,0.8,1.6,1.2
		c0.7,0.3,1.6,0.6,2.7,0.7c2.2,0.3,3.7,1,4.7,1.8c1,0.9,1.4,2,1.4,3.4c0,0.8-0.1,1.5-0.4,2.2c-0.3,0.6-0.7,1.2-1.3,1.6
		c-0.5,0.4-1.2,0.8-2,1C369.8,445.1,368.9,445.3,368,445.3"/>
	<path class="st3" d="M383,428.3c-0.2,0-0.4-0.1-0.5-0.2c-0.1-0.1-0.2-0.3-0.2-0.5c0-0.2,0.1-0.3,0.2-0.5c0.1-0.1,0.3-0.2,0.5-0.2
		h14.4c0.2,0,0.4,0.1,0.5,0.2c0.1,0.1,0.2,0.3,0.2,0.5c0,0.2-0.1,0.3-0.2,0.5c-0.1,0.1-0.3,0.2-0.5,0.2H383z M390.2,445
		c-0.2,0-0.4-0.1-0.5-0.2c-0.1-0.1-0.2-0.3-0.2-0.5V427h1.5v17.3c0,0.2-0.1,0.4-0.2,0.5C390.6,445,390.4,445,390.2,445"/>
	<path class="st3" d="M407.8,445c-0.2,0-0.4-0.1-0.5-0.2c-0.1-0.1-0.2-0.3-0.2-0.5v-16.6c0-0.2,0.1-0.4,0.2-0.5
		c0.1-0.1,0.3-0.2,0.5-0.2h4.8c1.2,0,2.3,0.2,3.3,0.7c1,0.5,1.7,1.1,2.2,1.9c0.5,0.8,0.8,1.8,0.8,2.8c0,1-0.3,2-0.8,2.8
		c-0.5,0.8-1.3,1.5-2.2,1.9c-1,0.5-2.1,0.7-3.3,0.7h-4.1v6.4c0,0.2-0.1,0.4-0.2,0.5C408.2,445,408,445,407.8,445 M408.6,436.5h4.1
		c0.9,0,1.8-0.2,2.5-0.5c0.7-0.3,1.3-0.8,1.7-1.4c0.4-0.6,0.6-1.3,0.6-2.1c0-0.8-0.2-1.5-0.6-2.1c-0.4-0.6-1-1.1-1.7-1.4
		c-0.7-0.4-1.5-0.5-2.5-0.5h-4.1V436.5z M418.4,445c-0.2,0-0.3,0-0.4-0.1c-0.1-0.1-0.2-0.2-0.3-0.3l-5-7.3l1.6-0.3l4.8,7
		c0.2,0.3,0.3,0.6,0.1,0.8C419.1,444.9,418.8,445,418.4,445"/>
	<path class="st3" d="M436.1,445.4c-1.5,0-2.8-0.3-3.9-0.8c-1.2-0.5-2-1.3-2.7-2.2c-0.6-1-1-2-1-3.2v-11.4c0-0.2,0.1-0.4,0.2-0.5
		c0.1-0.1,0.3-0.2,0.5-0.2c0.2,0,0.4,0.1,0.6,0.2c0.1,0.1,0.2,0.3,0.2,0.5v11.4c0,1,0.3,1.8,0.8,2.5c0.5,0.7,1.2,1.3,2.1,1.7
		c0.9,0.4,2,0.6,3.2,0.6c1.2,0,2.3-0.2,3.2-0.6c0.9-0.4,1.6-1,2.2-1.7c0.5-0.7,0.8-1.6,0.8-2.5v-11.4c0-0.2,0.1-0.4,0.2-0.5
		c0.1-0.1,0.3-0.2,0.5-0.2c0.3,0,0.4,0.1,0.6,0.2c0.1,0.1,0.2,0.3,0.2,0.5v11.4c0,1.2-0.3,2.3-1,3.2c-0.7,0.9-1.5,1.7-2.7,2.2
		C439,445.1,437.6,445.4,436.1,445.4"/>
	<path class="st3" d="M463.8,445.3c-1.4,0-2.6-0.2-3.8-0.7c-1.2-0.5-2.2-1.2-3.2-2c-0.9-0.9-1.6-1.8-2.1-3c-0.5-1.1-0.8-2.3-0.8-3.6
		c0-1.2,0.3-2.4,0.8-3.5c0.5-1.1,1.2-2.1,2.1-2.9c0.9-0.9,2-1.5,3.2-2c1.2-0.5,2.5-0.7,3.9-0.7c1.2,0,2.3,0.2,3.3,0.5
		c1,0.3,2,0.8,2.9,1.5c0.1,0.1,0.2,0.3,0.2,0.5c0,0.2-0.1,0.4-0.2,0.5c-0.1,0.1-0.3,0.2-0.6,0.2c-0.1,0-0.1,0-0.2,0
		c-0.1,0-0.1-0.1-0.2-0.1c-0.1,0-0.1-0.1-0.2-0.1c-0.7-0.6-1.4-1-2.3-1.2c-0.9-0.3-1.8-0.4-2.8-0.4c-1.1,0-2.2,0.2-3.2,0.6
		c-1,0.4-1.9,1-2.7,1.7c-0.8,0.7-1.4,1.6-1.8,2.5c-0.4,0.9-0.6,1.9-0.6,3c0,1.1,0.2,2.1,0.6,3c0.4,1,1,1.8,1.8,2.5
		c0.8,0.7,1.7,1.3,2.7,1.7c1,0.4,2.1,0.6,3.2,0.6c1,0,1.9-0.1,2.8-0.4c0.9-0.3,1.7-0.7,2.4-1.3c0.1-0.1,0.3-0.1,0.5-0.1
		c0.2,0,0.3,0.1,0.5,0.2c0.1,0.1,0.2,0.3,0.2,0.5c0,0.1,0,0.2,0,0.3c0,0.1-0.1,0.1-0.1,0.2c-0.8,0.8-1.8,1.3-2.9,1.6
		C466.1,445.1,465,445.3,463.8,445.3"/>
	<path class="st3" d="M479,428.3c-0.2,0-0.4-0.1-0.5-0.2c-0.1-0.1-0.2-0.3-0.2-0.5c0-0.2,0.1-0.3,0.2-0.5c0.1-0.1,0.3-0.2,0.5-0.2
		h14.4c0.2,0,0.4,0.1,0.5,0.2c0.1,0.1,0.2,0.3,0.2,0.5c0,0.2-0.1,0.3-0.2,0.5c-0.1,0.1-0.3,0.2-0.5,0.2H479z M486.2,445
		c-0.2,0-0.4-0.1-0.5-0.2c-0.1-0.1-0.2-0.3-0.2-0.5V427h1.5v17.3c0,0.2-0.1,0.4-0.2,0.5C486.6,445,486.4,445,486.2,445"/>
	<path class="st3" d="M503.8,445c-0.2,0-0.4-0.1-0.5-0.2c-0.1-0.1-0.2-0.3-0.2-0.5v-16.6c0-0.2,0.1-0.4,0.2-0.5
		c0.1-0.1,0.3-0.2,0.5-0.2c0.2,0,0.4,0.1,0.5,0.2c0.1,0.1,0.2,0.3,0.2,0.5v16.6c0,0.2-0.1,0.4-0.2,0.5C504.2,445,504,445,503.8,445"
		/>
	<path class="st3" d="M524.8,445.3c-1.5,0-2.8-0.2-4-0.7c-1.2-0.5-2.3-1.1-3.2-1.9c-0.9-0.8-1.6-1.8-2.1-2.9
		c-0.5-1.1-0.8-2.3-0.8-3.7c0-1.3,0.3-2.5,0.8-3.6c0.5-1.1,1.2-2.1,2.1-2.9c0.9-0.8,2-1.5,3.2-1.9c1.2-0.5,2.6-0.7,4-0.7
		c1.5,0,2.8,0.2,4,0.7c1.2,0.4,2.3,1.1,3.2,1.9c0.9,0.8,1.6,1.8,2.1,2.9c0.5,1.1,0.8,2.3,0.8,3.6c0,1.3-0.3,2.6-0.8,3.7
		c-0.5,1.1-1.2,2.1-2.1,2.9c-0.9,0.8-2,1.5-3.2,1.9C527.6,445,526.3,445.3,524.8,445.3 M524.8,443.9c1.2,0,2.3-0.2,3.4-0.6
		c1-0.4,2-0.9,2.7-1.7c0.8-0.7,1.4-1.5,1.8-2.5c0.4-0.9,0.6-2,0.6-3.1c0-1.1-0.2-2.1-0.6-3.1c-0.4-1-1-1.8-1.8-2.5
		c-0.8-0.7-1.7-1.3-2.7-1.7c-1.1-0.4-2.2-0.6-3.4-0.6c-1.2,0-2.4,0.2-3.4,0.6c-1.1,0.4-2,0.9-2.8,1.7c-0.8,0.7-1.4,1.5-1.8,2.5
		c-0.4,0.9-0.6,2-0.6,3.1c0,1.1,0.2,2.2,0.6,3.1c0.4,1,1,1.8,1.8,2.5c0.8,0.7,1.7,1.3,2.8,1.7C522.5,443.7,523.6,443.9,524.8,443.9"
		/>
	<path class="st3" d="M545.9,445c-0.2,0-0.4-0.1-0.5-0.2c-0.1-0.1-0.2-0.3-0.2-0.5v-16.6c0-0.2,0.1-0.4,0.2-0.5
		c0.1-0.1,0.3-0.2,0.5-0.2c0.2,0,0.4,0.1,0.6,0.2l12.9,15.2v-14.8c0-0.2,0.1-0.4,0.2-0.5c0.1-0.1,0.3-0.2,0.5-0.2
		c0.2,0,0.4,0.1,0.5,0.2c0.2,0.1,0.2,0.3,0.2,0.5v16.6c0,0.2-0.1,0.4-0.2,0.5c-0.2,0.1-0.3,0.2-0.5,0.2c-0.1,0-0.2,0-0.3-0.1
		c-0.1,0-0.2-0.1-0.2-0.2l-12.9-15.3v14.8c0,0.2-0.1,0.4-0.2,0.5C546.3,445,546.1,445,545.9,445"/>
	<path class="st3" d="M284.6,469.9c-0.2,0-0.4-0.1-0.5-0.2c-0.1-0.1-0.2-0.3-0.2-0.5v-4h-4.4c-0.2,0-0.4-0.1-0.5-0.2
		c-0.1-0.1-0.2-0.3-0.2-0.5c0-0.2,0.1-0.4,0.2-0.5c0.1-0.1,0.3-0.2,0.5-0.2h4.4v-4c0-0.2,0.1-0.4,0.2-0.5c0.1-0.1,0.3-0.2,0.5-0.2
		c0.2,0,0.4,0.1,0.6,0.2c0.1,0.1,0.2,0.3,0.2,0.5v4h4.4c0.2,0,0.4,0.1,0.6,0.2c0.1,0.1,0.2,0.3,0.2,0.5c0,0.2-0.1,0.4-0.2,0.5
		c-0.1,0.1-0.3,0.2-0.6,0.2h-4.4v4c0,0.2-0.1,0.4-0.2,0.5C285,469.8,284.8,469.9,284.6,469.9"/>
	<path class="st3" d="M314.4,472.7c-0.2,0-0.4-0.1-0.5-0.2c-0.1-0.1-0.2-0.3-0.2-0.5v-16.6c0-0.2,0.1-0.4,0.2-0.5
		c0.1-0.1,0.3-0.2,0.5-0.2c0.3,0,0.6,0.1,0.7,0.3l9,16.1h-0.9l8.8-16.1c0.2-0.2,0.4-0.3,0.7-0.3c0.2,0,0.4,0.1,0.5,0.2
		c0.1,0.1,0.2,0.3,0.2,0.5V472c0,0.2-0.1,0.4-0.2,0.5c-0.1,0.1-0.3,0.2-0.5,0.2c-0.2,0-0.4-0.1-0.6-0.2c-0.1-0.1-0.2-0.3-0.2-0.5
		v-15l0.4,0.1l-8.1,15c-0.1,0.2-0.3,0.3-0.7,0.3c-0.3,0-0.5-0.2-0.7-0.5l-8.2-14.9l0.5-0.1v15c0,0.2-0.1,0.4-0.2,0.5
		C314.8,472.6,314.7,472.7,314.4,472.7"/>
	<path class="st3" d="M343.3,472.7c-0.3,0-0.5-0.1-0.7-0.3c-0.1-0.2-0.1-0.4,0-0.6l7.7-16.5c0.1-0.3,0.4-0.5,0.7-0.5
		c0.3,0,0.6,0.2,0.7,0.5l7.7,16.5c0.1,0.2,0.1,0.4,0,0.6c-0.2,0.2-0.4,0.3-0.7,0.3c-0.2,0-0.3,0-0.4-0.1c-0.1-0.1-0.2-0.2-0.3-0.3
		l-7.5-16.2h0.8l-7.4,16.2c-0.1,0.2-0.2,0.3-0.3,0.3C343.7,472.6,343.5,472.7,343.3,472.7 M345.2,468.2l0.6-1.2h10.5l0.6,1.2H345.2z
		"/>
	<path class="st3" d="M369.3,472.7c-0.2,0-0.4-0.1-0.5-0.2c-0.1-0.1-0.2-0.3-0.2-0.5v-16.6c0-0.2,0.1-0.4,0.2-0.5
		c0.1-0.1,0.3-0.2,0.5-0.2c0.2,0,0.4,0.1,0.6,0.2l12.9,15.2v-14.8c0-0.2,0.1-0.4,0.2-0.5c0.1-0.1,0.3-0.2,0.5-0.2
		c0.2,0,0.4,0.1,0.5,0.2c0.2,0.1,0.2,0.3,0.2,0.5V472c0,0.2-0.1,0.4-0.2,0.5c-0.2,0.1-0.3,0.2-0.5,0.2c-0.1,0-0.2,0-0.3-0.1
		c-0.1,0-0.2-0.1-0.2-0.2l-12.9-15.3V472c0,0.2-0.1,0.4-0.2,0.5C369.7,472.6,369.5,472.7,369.3,472.7"/>
	<path class="st3" d="M394.1,472.7c-0.3,0-0.5-0.1-0.7-0.3c-0.1-0.2-0.1-0.4,0-0.6l7.7-16.5c0.1-0.3,0.4-0.5,0.7-0.5
		c0.3,0,0.6,0.2,0.7,0.5l7.7,16.5c0.1,0.2,0.1,0.4,0,0.6c-0.2,0.2-0.4,0.3-0.7,0.3c-0.2,0-0.3,0-0.4-0.1c-0.1-0.1-0.2-0.2-0.3-0.3
		l-7.5-16.2h0.8l-7.4,16.2c-0.1,0.2-0.2,0.3-0.3,0.3C394.5,472.6,394.3,472.7,394.1,472.7 M396,468.2l0.6-1.2h10.5l0.6,1.2H396z"/>
	<path class="st3" d="M428.2,472.9c-1.4,0-2.6-0.2-3.8-0.7c-1.2-0.5-2.2-1.2-3.2-2c-0.9-0.9-1.6-1.8-2.1-3c-0.5-1.1-0.8-2.3-0.8-3.6
		c0-1.2,0.3-2.4,0.8-3.5c0.5-1.1,1.2-2.1,2.1-2.9c0.9-0.9,2-1.5,3.2-2c1.2-0.5,2.5-0.7,3.9-0.7c1.2,0,2.3,0.2,3.3,0.5
		c1,0.3,2,0.8,2.9,1.5c0.1,0.1,0.2,0.3,0.2,0.5c0,0.2-0.1,0.4-0.2,0.5c-0.1,0.1-0.3,0.2-0.6,0.2c-0.1,0-0.1,0-0.2,0
		c-0.1,0-0.1-0.1-0.2-0.1c-0.1,0-0.1-0.1-0.2-0.1c-0.7-0.6-1.4-1-2.3-1.2c-0.9-0.3-1.8-0.4-2.8-0.4c-1.1,0-2.2,0.2-3.2,0.6
		c-1,0.4-1.9,1-2.7,1.7c-0.8,0.7-1.4,1.6-1.8,2.5c-0.4,0.9-0.6,1.9-0.6,3c0,1.1,0.2,2.1,0.6,3c0.4,1,1,1.8,1.8,2.5
		c0.8,0.7,1.7,1.3,2.7,1.7c1,0.4,2.1,0.6,3.2,0.6c1,0,1.9-0.1,2.8-0.4c0.9-0.3,1.7-0.7,2.4-1.3c0.1-0.1,0.3-0.2,0.5-0.1
		c0.2,0,0.3,0.1,0.5,0.2c0.1,0.1,0.2,0.3,0.2,0.5c0,0.1,0,0.2,0,0.3c0,0.1-0.1,0.1-0.1,0.2c-0.8,0.8-1.8,1.3-2.9,1.6
		C430.5,472.8,429.4,472.9,428.2,472.9 M434.6,470.4l-1.5-0.3v-5h-4.3c-0.2,0-0.4-0.1-0.5-0.2c-0.1-0.1-0.2-0.3-0.2-0.5
		c0-0.2,0.1-0.3,0.2-0.4c0.1-0.1,0.3-0.2,0.5-0.2h5c0.2,0,0.4,0.1,0.6,0.2c0.1,0.1,0.2,0.3,0.2,0.5V470.4z"/>
	<path class="st3" d="M445.6,472.7c-0.2,0-0.4-0.1-0.5-0.2c-0.1-0.1-0.2-0.3-0.2-0.5v-16.6c0-0.2,0.1-0.4,0.2-0.5
		c0.1-0.1,0.3-0.2,0.5-0.2h12.2c0.2,0,0.4,0.1,0.5,0.2c0.1,0.1,0.2,0.3,0.2,0.5c0,0.2-0.1,0.3-0.2,0.5c-0.2,0.1-0.3,0.2-0.5,0.2
		h-11.4v6.9h8.4c0.2,0,0.4,0.1,0.5,0.2c0.1,0.1,0.2,0.3,0.2,0.5c0,0.2-0.1,0.4-0.2,0.5c-0.1,0.1-0.3,0.2-0.5,0.2h-8.4v6.9h11.4
		c0.2,0,0.4,0.1,0.5,0.2c0.1,0.1,0.2,0.3,0.2,0.5c0,0.2-0.1,0.4-0.2,0.5c-0.2,0.1-0.3,0.2-0.5,0.2H445.6z"/>
	<path class="st3" d="M469.1,472.7c-0.2,0-0.4-0.1-0.5-0.2c-0.1-0.1-0.2-0.3-0.2-0.5v-16.6c0-0.2,0.1-0.4,0.2-0.5
		c0.1-0.1,0.3-0.2,0.5-0.2c0.3,0,0.6,0.1,0.7,0.3l9,16.1h-0.9l8.8-16.1c0.2-0.2,0.4-0.3,0.7-0.3c0.2,0,0.4,0.1,0.5,0.2
		c0.1,0.1,0.2,0.3,0.2,0.5V472c0,0.2-0.1,0.4-0.2,0.5c-0.1,0.1-0.3,0.2-0.5,0.2c-0.2,0-0.4-0.1-0.6-0.2c-0.1-0.1-0.2-0.3-0.2-0.5
		v-15l0.4,0.1l-8.1,15c-0.1,0.2-0.3,0.3-0.7,0.3c-0.3,0-0.5-0.2-0.7-0.5l-8.2-14.9l0.5-0.1v15c0,0.2-0.1,0.4-0.2,0.5
		C469.5,472.6,469.3,472.7,469.1,472.7"/>
	<path class="st3" d="M500,472.7c-0.2,0-0.4-0.1-0.5-0.2c-0.1-0.1-0.2-0.3-0.2-0.5v-16.6c0-0.2,0.1-0.4,0.2-0.5
		c0.1-0.1,0.3-0.2,0.5-0.2h12.2c0.2,0,0.4,0.1,0.5,0.2c0.1,0.1,0.2,0.3,0.2,0.5c0,0.2-0.1,0.3-0.2,0.5c-0.2,0.1-0.3,0.2-0.5,0.2
		h-11.4v6.9h8.4c0.2,0,0.4,0.1,0.5,0.2c0.1,0.1,0.2,0.3,0.2,0.5c0,0.2-0.1,0.4-0.2,0.5c-0.1,0.1-0.3,0.2-0.5,0.2h-8.4v6.9h11.4
		c0.2,0,0.4,0.1,0.5,0.2c0.1,0.1,0.2,0.3,0.2,0.5c0,0.2-0.1,0.4-0.2,0.5c-0.2,0.1-0.3,0.2-0.5,0.2H500z"/>
	<path class="st3" d="M523.5,472.7c-0.2,0-0.4-0.1-0.5-0.2c-0.1-0.1-0.2-0.3-0.2-0.5v-16.6c0-0.2,0.1-0.4,0.2-0.5
		c0.1-0.1,0.3-0.2,0.5-0.2c0.2,0,0.4,0.1,0.6,0.2l12.9,15.2v-14.8c0-0.2,0.1-0.4,0.2-0.5c0.1-0.1,0.3-0.2,0.5-0.2
		c0.2,0,0.4,0.1,0.5,0.2c0.2,0.1,0.2,0.3,0.2,0.5V472c0,0.2-0.1,0.4-0.2,0.5c-0.2,0.1-0.3,0.2-0.5,0.2c-0.1,0-0.2,0-0.3-0.1
		s-0.2-0.1-0.2-0.2l-12.9-15.3V472c0,0.2-0.1,0.4-0.2,0.5C523.9,472.6,523.7,472.7,523.5,472.7"/>
	<path class="st3" d="M548.2,455.9c-0.2,0-0.4-0.1-0.5-0.2c-0.1-0.1-0.2-0.3-0.2-0.5c0-0.2,0.1-0.3,0.2-0.4c0.1-0.1,0.3-0.2,0.5-0.2
		h14.4c0.2,0,0.4,0.1,0.5,0.2c0.1,0.1,0.2,0.3,0.2,0.4c0,0.2-0.1,0.3-0.2,0.5c-0.1,0.1-0.3,0.2-0.5,0.2H548.2z M555.4,472.7
		c-0.2,0-0.4-0.1-0.5-0.2c-0.1-0.1-0.2-0.3-0.2-0.5v-17.3h1.5V472c0,0.2-0.1,0.4-0.2,0.5C555.8,472.6,555.6,472.7,555.4,472.7"/>
</g>
</svg>
