<?xml version="1.0" encoding="utf-8"?>
<!-- Generator: Adobe Illustrator 25.2.0, SVG Export Plug-In . SVG Version: 6.00 Build 0)  -->
<svg version="1.1" id="Layer_1" xmlns="http://www.w3.org/2000/svg" xmlns:xlink="http://www.w3.org/1999/xlink" x="0px" y="0px"
	 viewBox="0 0 841.9 595.3" style="enable-background:new 0 0 841.9 595.3;" xml:space="preserve">
<style type="text/css">
	.st0{clip-path:url(#SVGID_2_);fill:#331643;}
	.st1{fill:#331643;}
	.st2{fill:#D20A11;}
	.st3{clip-path:url(#SVGID_4_);fill:#D20A11;}
</style>
<g>
	<defs>
		<rect id="SVGID_1_" x="277.7" y="136.2" width="286.6" height="322.8"/>
	</defs>
	<clipPath id="SVGID_2_">
		<use xlink:href="#SVGID_1_"  style="overflow:visible;"/>
	</clipPath>
	<path class="st0" d="M463.9,365.3c14.4,0,25.2,11.1,25.2,25.9c-0.1,14.7-11,25.7-25.5,25.6c-14.3,0-25.2-11.1-25.2-25.6
		C438.4,376.5,449.4,365.3,463.9,365.3 M463.7,412c11.5,0,20.3-9.2,20.2-20.9c-0.1-11.8-9-21-20.3-21c-11.3,0-20,9.1-20,20.8
		C443.6,402.7,452.5,412.1,463.7,412"/>
	<path class="st0" d="M398.7,416.1v-22.8H370v22.9c-1.8,0.1-3.3,0.1-5,0.2v-50.3c3.3,0.4,4.8,2.1,4.8,5.7c0.1,5.3,0,10.6,0,16.2
		h28.9v-22h5.1c0.1,0.6,0.2,1.3,0.2,1.9c0,13.9,0,27.9,0,41.8C404,414.1,402.7,415.7,398.7,416.1"/>
	<path class="st0" d="M302.1,403.5c4-7.5,10.9-3.6,16.5-5.2c-3.4-6.9-6.7-13.7-10.4-21c-1.1,2.1-2.1,3.9-2.9,5.6
		c-4.9,9.9-9.7,19.9-14.7,29.8c-2.2,4.4-0.5,3.7-7.4,3.5c8.3-16.7,16.5-33.2,25-50.3c8.4,17,16.6,33.5,24.9,50.1
		c-5.1,0.8-5.1,0.7-7.1-3.1c-0.6-1.2-1.4-2.4-1.9-3.7c-1.9-4.6-3.9-6-9.2-5.9C310.9,403.6,306.8,403.5,302.1,403.5"/>
	<path class="st0" d="M519.5,365.9c4.4,0.2,7.3,1.9,9.6,4.9c3.4,4.6,6.8,9.1,10.2,13.7c0.5,0.7,1.1,1.2,1.8,2.1
		c3.6-4.8,7.2-9.5,10.7-14.2c0.8-1,1.5-2.1,2.3-3.2c2.8-3.6,2.8-3.6,8.2-3.1c-6.1,8.2-12.1,16.1-18.2,24.3
		c6.3,8.5,12.7,17,19.2,25.8c-3.8-0.1-6.7-1.4-8.8-4c-4.1-5.2-8-10.6-12-15.9c-0.4-0.6-0.9-1.2-1.6-2c-2.8,3.7-5.5,7.3-8.1,10.8
		c-2.5,3.3-4.6,6.9-7.4,9.8c-1.3,1.4-5,1.3-7,1.9c-0.2-0.3,13.1-17.8,19.5-26.4C531.9,382.4,525.9,374.4,519.5,365.9"/>
</g>
<polygon class="st1" points="426.3,136.2 420.1,147 413.9,157.8 413.9,157.8 407.7,168.6 401.4,179.4 395.2,190.1 389,200.9 
	382.8,211.7 376.5,222.5 370.3,233.3 364.1,244 364.1,244 357.9,254.8 351.7,265.6 345.4,276.4 345.4,276.4 339.2,287.1 333,297.9 
	326.8,308.7 326.7,308.7 320.5,319.5 314.3,330.3 308.1,341 395.2,341 401.4,330.3 407.7,319.5 413.9,308.7 413.9,308.7 
	407.7,297.9 401.4,308.7 395.2,319.5 389,330.3 364.1,330.3 370.3,319.5 376.5,308.7 376.6,308.7 382.8,297.9 395.2,276.4 
	395.2,276.4 389,265.6 382.8,276.4 382.8,276.4 376.5,287.1 370.3,297.9 364.1,308.7 351.7,330.3 326.8,330.3 333,319.5 
	339.2,308.7 345.4,297.9 364.1,265.6 370.3,254.8 376.6,244 382.8,233.3 389,222.5 395.2,211.7 401.4,200.9 401.4,200.9 
	420.1,168.6 420.1,168.6 426.3,157.8 432.5,168.6 432.5,168.6 451.2,200.9 457.4,211.7 463.7,222.5 469.9,233.3 469.9,233.3 
	476.1,244 476.1,244 482.3,254.8 488.6,265.6 494.8,276.4 501,287.1 507.2,297.9 507.2,297.9 513.4,308.7 513.5,308.7 519.7,319.5 
	519.7,319.5 525.9,330.3 501,330.3 488.6,308.7 482.3,297.9 476.1,287.1 469.9,276.4 457.4,276.4 463.7,287.1 469.9,297.9 
	476.1,308.7 482.3,319.5 488.6,330.3 463.6,330.3 457.4,319.5 457.4,319.5 451.2,308.7 445,297.9 432.5,276.4 426.3,265.6 
	420.1,254.8 413.9,244 407.7,233.3 401.4,244 407.7,254.8 413.9,265.6 413.9,265.6 420.1,276.4 426.3,287.1 432.5,297.9 445,319.5 
	451.2,330.3 457.4,341 544.6,341 538.3,330.3 532.1,319.5 519.7,297.9 513.4,287.1 507.2,276.4 507.2,276.4 501,265.6 501,265.6 
	494.8,254.8 488.6,244 482.3,233.3 463.6,200.9 463.6,200.9 457.4,190.1 457.4,190.1 451.2,179.4 445,168.6 438.8,157.8 432.6,147 
	432.5,147 "/>
<polygon class="st2" points="445,190.1 438.8,200.9 432.5,211.7 426.3,222.5 420.1,233.3 413.9,244 407.7,233.3 413.9,222.5 
	420.1,211.7 426.3,200.9 432.5,190.1 438.8,179.4 "/>
<polygon class="st2" points="463.7,222.5 457.4,233.3 451.2,244 438.8,265.6 432.5,276.4 426.3,265.6 426.3,265.6 432.5,254.8 
	438.8,244 445,233.3 451.2,222.5 457.4,211.7 "/>
<polygon class="st2" points="482.3,254.8 476.1,265.6 476.1,265.6 469.9,276.4 457.4,276.4 463.7,265.6 469.9,254.8 476.1,244 
	476.1,244 "/>
<polygon class="st2" points="401.4,157.8 395.2,168.6 389,157.8 326.8,157.8 333,168.6 339.2,179.4 345.4,190.1 345.4,190.1 
	351.6,200.9 357.9,211.7 364.1,222.5 357.9,233.3 345.4,211.7 339.2,200.9 333,190.1 333,190.1 326.8,179.4 320.5,168.6 
	320.5,168.6 314.3,157.8 308.1,147 395.2,147 "/>
<polygon class="st2" points="382.8,190.1 376.5,200.9 376.5,200.9 370.3,190.1 364.1,179.4 357.9,168.6 370.3,168.6 376.5,179.4 "/>
<g>
	<defs>
		<rect id="SVGID_3_" x="277.7" y="136.2" width="286.6" height="322.8"/>
	</defs>
	<clipPath id="SVGID_4_">
		<use xlink:href="#SVGID_3_"  style="overflow:visible;"/>
	</clipPath>
	<path class="st3" d="M278.8,454.7c0.9,0.5,1.8,0.9,2.7,1.3c1,0.4,1.9,0.7,2.9,0.9c1,0.2,2,0.4,2.9,0.5c1,0.1,1.9,0.2,2.8,0.2
		c0.5,0,1.2,0,1.9-0.1c0.7-0.1,1.5-0.1,2.3-0.3c0.8-0.1,1.6-0.3,2.3-0.6c0.8-0.2,1.5-0.5,2.1-0.9c0.6-0.3,1.1-0.8,1.5-1.3
		c0.4-0.5,0.5-1.1,0.5-1.7c0-0.9-0.3-1.6-1-2.2c-0.6-0.6-1.5-1.1-2.5-1.5c-1-0.4-2.2-0.7-3.6-1c-1.3-0.3-2.7-0.5-4.1-0.8
		c-1.4-0.2-2.7-0.5-4.1-0.8c-1.3-0.3-2.5-0.7-3.6-1.1c-1-0.4-1.9-1-2.5-1.6c-0.6-0.7-1-1.5-1-2.4c0-0.9,0.2-1.6,0.6-2.2
		c0.4-0.6,0.9-1.1,1.5-1.6c0.6-0.4,1.4-0.8,2.2-1.1c0.8-0.3,1.7-0.5,2.6-0.7c0.9-0.2,1.7-0.3,2.6-0.3c0.9-0.1,1.6-0.1,2.4-0.1
		c0.7,0,1.4,0.1,2.2,0.2c0.8,0.1,1.6,0.2,2.4,0.4c0.8,0.2,1.6,0.3,2.3,0.6c0.8,0.2,1.4,0.5,2,0.7c0.6,0.2,1,0.5,1.4,0.7
		c0.3,0.2,0.5,0.4,0.5,0.6c0,0.2-0.1,0.3-0.2,0.5c-0.1,0.1-0.3,0.2-0.5,0.2c-0.2,0-0.3,0-0.5-0.1c-0.4-0.2-1-0.4-1.6-0.7
		c-0.7-0.3-1.4-0.5-2.3-0.7c-0.9-0.2-1.8-0.4-2.8-0.6c-1-0.2-2.1-0.2-3.2-0.2c-1.5,0-2.8,0.1-4,0.3c-1.2,0.2-2.2,0.5-3.1,0.9
		c-0.9,0.4-1.5,0.9-2,1.4c-0.5,0.6-0.7,1.3-0.7,2c0,0.7,0.3,1.3,0.9,1.8c0.6,0.5,1.5,0.9,2.5,1.2c1,0.3,2.2,0.6,3.6,0.9
		c1.3,0.2,2.7,0.5,4.1,0.8c1.4,0.3,2.7,0.6,4.1,0.9c1.3,0.3,2.5,0.8,3.6,1.3c1.1,0.5,1.9,1.2,2.5,1.9c0.6,0.8,1,1.7,1,2.8
		c0,1.1-0.4,2-1.2,2.8c-0.8,0.8-1.8,1.4-3,1.9c-1.2,0.5-2.5,0.8-4,1.1c-1.4,0.2-2.8,0.3-4.1,0.3c-1.1,0-2.2-0.1-3.3-0.2
		c-1.1-0.1-2.2-0.3-3.3-0.6c-1.1-0.3-2.1-0.6-3.1-1.1c-1-0.4-1.9-0.9-2.7-1.5c-0.1-0.1-0.2-0.3-0.2-0.5c0-0.2,0.1-0.3,0.2-0.5
		c0.1-0.1,0.3-0.2,0.5-0.2C278.5,454.5,278.7,454.6,278.8,454.7"/>
	<path class="st3" d="M320.6,458.7c-0.1,0-0.3-0.1-0.4-0.2c-0.1-0.1-0.2-0.3-0.2-0.4v-21.6c0-0.2,0.1-0.3,0.3-0.4
		c0.2-0.1,0.4-0.1,0.6-0.1h18.8c0.3,0,0.5,0.1,0.7,0.2c0.1,0.1,0.2,0.3,0.2,0.5c0,0.2-0.1,0.3-0.2,0.5c-0.2,0.1-0.4,0.2-0.7,0.3
		h-17.9v8.9h16.3c0.3,0,0.5,0.1,0.7,0.2c0.1,0.1,0.2,0.3,0.2,0.5c0,0.2-0.1,0.3-0.2,0.5c-0.2,0.1-0.4,0.2-0.7,0.2h-16.3v9.7h17.9
		c0.3,0,0.5,0.1,0.7,0.2c0.1,0.2,0.2,0.3,0.2,0.5c0,0.2-0.1,0.3-0.2,0.5c-0.2,0.1-0.4,0.2-0.7,0.2H320.6z"/>
	<path class="st3" d="M380.7,455.9c-1.4,1-2.9,1.8-4.5,2.3c-1.6,0.5-3.3,0.8-5.1,0.8c-1.9,0-3.7-0.3-5.4-0.9
		c-1.7-0.6-3.2-1.5-4.4-2.5c-1.3-1.1-2.2-2.3-3-3.8c-0.7-1.4-1.1-3-1.1-4.6c0-1.6,0.4-3.1,1.1-4.5c0.7-1.4,1.7-2.7,3-3.8
		c1.3-1.1,2.7-1.9,4.4-2.6c1.7-0.6,3.5-1,5.4-1c1.7,0,3.4,0.3,5.1,0.8c1.6,0.5,3.2,1.3,4.6,2.3c0.2,0.1,0.2,0.3,0.2,0.4
		c0,0.2-0.1,0.3-0.2,0.5c-0.1,0.1-0.3,0.2-0.5,0.2c-0.2,0-0.4-0.1-0.6-0.2c-1.2-0.8-2.6-1.5-4.1-1.9c-1.5-0.5-2.9-0.7-4.4-0.7
		c-1.7,0-3.3,0.3-4.8,0.8c-1.5,0.6-2.8,1.3-3.9,2.3c-1.1,1-2,2-2.6,3.3c-0.6,1.3-1,2.6-1,4c0,1.4,0.3,2.8,1,4.1
		c0.6,1.3,1.5,2.4,2.7,3.3c1.1,0.9,2.4,1.7,3.9,2.2c1.5,0.5,3.1,0.8,4.8,0.8c1.5,0,2.9-0.2,4.3-0.7c1.4-0.5,2.7-1.1,3.9-1.9
		c0.2-0.1,0.3-0.2,0.6-0.2c0.2,0,0.4,0.1,0.5,0.2c0.1,0.1,0.2,0.3,0.2,0.5C381,455.6,380.9,455.8,380.7,455.9"/>
	<path class="st3" d="M422.4,436.6c0-0.3,0.1-0.4,0.3-0.6c0.2-0.1,0.4-0.2,0.6-0.2c0.2,0,0.4,0.1,0.6,0.2c0.2,0.1,0.3,0.3,0.3,0.6
		v11.6c0,1.8-0.4,3.4-1.1,4.8c-0.7,1.4-1.7,2.5-2.9,3.4c-1.2,0.9-2.5,1.6-4.1,2c-1.5,0.4-3.1,0.7-4.7,0.7c-1.9,0-3.6-0.3-5.2-0.8
		c-1.6-0.5-2.9-1.3-4-2.2c-1.1-1-2-2.1-2.6-3.4c-0.6-1.3-0.9-2.8-0.9-4.4v-11.6c0-0.3,0.1-0.4,0.3-0.6c0.2-0.1,0.4-0.2,0.6-0.2
		c0.2,0,0.4,0.1,0.6,0.2c0.2,0.1,0.3,0.3,0.3,0.6v10.5c0,1.6,0.3,3.1,0.8,4.4c0.5,1.3,1.2,2.4,2.2,3.3c1,0.9,2.1,1.6,3.4,2.1
		c1.4,0.5,2.9,0.8,4.5,0.8c1.7,0,3.2-0.2,4.5-0.8c1.3-0.5,2.5-1.2,3.4-2.1s1.7-2,2.2-3.3c0.5-1.3,0.8-2.7,0.8-4.4V436.6z"/>
	<path class="st3" d="M457.9,448.1h-13.1v10.2c0,0.3-0.1,0.5-0.3,0.6c-0.2,0.1-0.4,0.2-0.7,0.2c-0.2,0-0.4-0.1-0.6-0.2
		c-0.2-0.1-0.3-0.3-0.3-0.6v-21.6c0-0.3,0.1-0.4,0.3-0.6c0.2-0.1,0.4-0.2,0.6-0.2h15c1.1,0,2.2,0.2,3,0.5c0.9,0.4,1.6,0.8,2.2,1.4
		c0.6,0.6,1.1,1.2,1.4,2c0.3,0.7,0.5,1.5,0.5,2.2c0,0.7-0.1,1.4-0.4,2.1c-0.3,0.7-0.6,1.3-1.2,1.8c-0.5,0.5-1.1,1-1.9,1.4
		c-0.8,0.4-1.6,0.6-2.5,0.8l8.5,9.7c0.1,0.2,0.2,0.4,0.2,0.5c0,0.2-0.1,0.4-0.3,0.6c-0.2,0.2-0.4,0.2-0.7,0.2
		c-0.3,0-0.5-0.1-0.7-0.3L457.9,448.1z M444.9,437.2v9.4h14.1c0.9,0,1.7-0.1,2.4-0.4c0.7-0.3,1.2-0.6,1.7-1.1c0.4-0.4,0.8-0.9,1-1.5
		c0.2-0.6,0.3-1.1,0.3-1.7c0-0.6-0.1-1.2-0.3-1.7c-0.2-0.6-0.5-1.1-1-1.5c-0.5-0.4-1-0.8-1.7-1.1c-0.7-0.3-1.5-0.4-2.4-0.4H444.9z"
		/>
	<path class="st3" d="M485.2,436.6c0-0.3,0.1-0.4,0.3-0.6c0.2-0.1,0.4-0.2,0.6-0.2c0.2,0,0.4,0.1,0.6,0.2c0.2,0.1,0.3,0.3,0.3,0.6
		v21.6c0,0.3-0.1,0.5-0.3,0.6c-0.2,0.1-0.4,0.2-0.7,0.2c-0.2,0-0.4-0.1-0.6-0.2c-0.2-0.1-0.3-0.3-0.3-0.6V436.6z"/>
	<path class="st3" d="M515.2,437.2h-11.9c-0.2,0-0.4-0.1-0.5-0.2c-0.2-0.1-0.3-0.3-0.3-0.5c0-0.2,0.1-0.4,0.3-0.5
		c0.2-0.1,0.3-0.2,0.5-0.2h25.6c0.2,0,0.4,0.1,0.5,0.2c0.1,0.1,0.2,0.3,0.2,0.5c0,0.2-0.1,0.4-0.2,0.5c-0.2,0.1-0.3,0.2-0.5,0.2H517
		v21c0,0.3-0.1,0.5-0.3,0.6c-0.2,0.1-0.4,0.2-0.7,0.2c-0.2,0-0.4-0.1-0.6-0.2c-0.2-0.1-0.3-0.3-0.3-0.6V437.2z"/>
	<path class="st3" d="M552,447.2l-10.1-10.3c-0.2-0.1-0.3-0.3-0.3-0.5c0-0.2,0.1-0.4,0.3-0.6c0.2-0.2,0.4-0.3,0.7-0.3
		c0.2,0,0.4,0.1,0.6,0.3l9.7,9.8l9.7-9.8c0.2-0.2,0.4-0.3,0.6-0.3c0.3,0,0.5,0.1,0.7,0.3c0.2,0.2,0.3,0.4,0.3,0.6
		c0,0.2-0.1,0.4-0.2,0.5l-10.2,10.3v11c0,0.3-0.1,0.5-0.3,0.6c-0.2,0.1-0.4,0.2-0.7,0.2c-0.2,0-0.4-0.1-0.6-0.2
		c-0.2-0.1-0.3-0.3-0.3-0.6V447.2z"/>
</g>
</svg>
